<?xml version="1.0" encoding="iso-8859-1"?>
<!-- Generator: Adobe Illustrator 29.8.1, SVG Export Plug-In . SVG Version: 9.03 Build 0)  -->
<svg version="1.1" id="Layer_2_00000018234246500149873090000004288327278358903710_"
	 xmlns="http://www.w3.org/2000/svg" xmlns:xlink="http://www.w3.org/1999/xlink" x="0px" y="0px" viewBox="0 0 482.32 448.97"
	 style="enable-background:new 0 0 482.32 448.97;" xml:space="preserve">
<g id="_02_-_thinking_copy">
	<g id="wings_copy_3">
		<g id="Layer_5_copy_4">
			<path style="fill:#D6F0FA;" d="M346.69,248.6c0.13-2.34,2.01-4.19,4.35-4.31c24.3-1.19,80.87,1.47,100.74,48.45
				c10.29,24.33-5.59,51.13-29.74,58.54c-25.27,7.75-58.26-5.52-67.97-43.43c-7.8-30.48-7.84-51.02-7.39-59.26L346.69,248.6z"/>
			<g>
				<defs>
					<path id="SVGID_1_" d="M346.69,248.6c0.13-2.34,2.01-4.19,4.35-4.31c24.3-1.19,80.87,1.47,100.74,48.45
						c10.29,24.33-5.59,51.13-29.74,58.54c-25.27,7.75-58.26-5.52-67.97-43.43c-7.8-30.48-7.84-51.02-7.39-59.26L346.69,248.6z"/>
				</defs>
				<clipPath id="SVGID_00000116955938707174523590000009886000939103302786_">
					<use xlink:href="#SVGID_1_"  style="overflow:visible;"/>
				</clipPath>
				<g style="clip-path:url(#SVGID_00000116955938707174523590000009886000939103302786_);">
					<g>
						<path style="fill:#BDE3F8;" d="M412.252,359.881c-1.358,0-2.65-0.796-3.22-2.123c-10.831-25.294-9.943-56.821-9.9-58.151
							c0.053-1.64,1.237-3.021,2.849-3.326c25.688-4.849,52.675-5.326,52.944-5.331c0.02,0,0.038,0,0.057,0
							c1.907,0,3.468,1.53,3.498,3.444c0.031,1.933-1.511,3.524-3.443,3.556c-0.254,0.004-24.728,0.44-48.928,4.694
							c0.05,8.196,0.947,32.716,9.359,52.358c0.761,1.777-0.063,3.834-1.84,4.596C413.179,359.79,412.711,359.881,412.252,359.881z"
							/>
						<path style="fill:#BDE3F8;" d="M402.617,303.21c-0.655,0-1.318-0.184-1.908-0.567c-38.688-25.212-68.19-66.187-69.428-67.919
							c-1.123-1.573-0.759-3.759,0.814-4.882c1.571-1.124,3.759-0.76,4.882,0.813c0.296,0.413,29.997,41.648,67.554,66.122
							c1.619,1.056,2.076,3.224,1.021,4.844C404.882,302.651,403.761,303.21,402.617,303.21z"/>
					</g>
				</g>
			</g>
		</g>
		<g id="Layer_4_copy_4">
			<path style="fill:#D6F0FA;" d="M345.92,205.5c7.94-38.33,29.1-117.41,95.71-100.48c67.4,17.13,39.46,94.84-0.47,122.29
				S339.09,255.35,313.01,249c-14.81-3.61,24.98-5.17,32.92-43.5H345.92z"/>
			<g>
				<defs>
					<path id="SVGID_00000103252709516515647720000006645883164456946822_" d="M345.92,205.5c7.94-38.33,29.1-117.41,95.71-100.48
						c67.4,17.13,39.46,94.84-0.47,122.29S339.09,255.35,313.01,249c-14.81-3.61,24.98-5.17,32.92-43.5H345.92z"/>
				</defs>
				<clipPath id="SVGID_00000140708114783122686670000005865641290217514921_">
					<use xlink:href="#SVGID_00000103252709516515647720000006645883164456946822_"  style="overflow:visible;"/>
				</clipPath>
				<g style="clip-path:url(#SVGID_00000140708114783122686670000005865641290217514921_);">
					<g>
						<path style="fill:#BDE3F8;" d="M439.679,177.024c-17.031,0-29.354-1.592-30.351-1.725c-1.627-0.217-2.884-1.534-3.025-3.168
							c-3.416-39.521-0.035-80.349,0-80.757c0.162-1.926,1.846-3.361,3.782-3.192c1.927,0.163,3.355,1.856,3.192,3.783
							c-0.033,0.392-3.203,38.711-0.235,76.709c10.722,1.097,50.272,4.158,83.061-6.133c1.841-0.579,3.809,0.447,4.387,2.291
							c0.579,1.844-0.446,3.809-2.291,4.388C478.397,175.435,456.689,177.023,439.679,177.024z"/>
						<path style="fill:#BDE3F8;" d="M349.299,247.59c-0.846,0-1.693-0.305-2.365-0.921c-1.424-1.307-1.52-3.521-0.213-4.945
							c0.469-0.511,47.058-51.365,60.121-71.79c1.042-1.63,3.206-2.104,4.834-1.063c1.629,1.042,2.104,3.206,1.062,4.834
							c-13.39,20.936-58.928,70.645-60.859,72.75C351.188,247.208,350.245,247.59,349.299,247.59z"/>
					</g>
				</g>
			</g>
		</g>
		<g id="Layer_5_copy_4-2">
			<path style="fill:#D6F0FA;" d="M138.63,248.22c-0.13-2.34-2.01-4.19-4.35-4.31c-24.3-1.19-80.87,1.47-100.74,48.45
				c-10.29,24.33,5.59,51.13,29.74,58.54c25.27,7.75,58.26-5.52,67.97-43.43c7.8-30.48,7.84-51.02,7.39-59.26L138.63,248.22z"/>
			<g>
				<defs>
					<path id="SVGID_00000125571764291153799290000013499530313714601123_" d="M138.63,248.6c-0.13-2.34-2.01-4.19-4.35-4.31
						c-24.3-1.19-80.87,1.47-100.74,48.45c-10.29,24.33,5.59,51.13,29.74,58.54c25.27,7.75,58.26-5.52,67.97-43.43
						c7.8-30.48,7.84-51.02,7.39-59.26L138.63,248.6z"/>
				</defs>
				<clipPath id="SVGID_00000066508413399239402640000004088262917549634454_">
					<use xlink:href="#SVGID_00000125571764291153799290000013499530313714601123_"  style="overflow:visible;"/>
				</clipPath>
				<g style="clip-path:url(#SVGID_00000066508413399239402640000004088262917549634454_);">
					<g>
						<path style="fill:#BDE3F8;" d="M70.079,359.881c-0.46,0-0.927-0.091-1.376-0.283c-1.777-0.762-2.601-2.818-1.839-4.596
							c8.412-19.643,9.309-44.162,9.358-52.358c-24.2-4.254-48.673-4.69-48.927-4.694c-1.933-0.031-3.475-1.623-3.444-3.556
							c0.03-1.914,1.591-3.444,3.499-3.444c0.019,0,0.038,0,0.056,0c0.27,0.005,27.256,0.482,52.944,5.331
							c1.611,0.305,2.795,1.687,2.849,3.326c0.043,1.33,0.931,32.857-9.901,58.151C72.729,359.085,71.437,359.881,70.079,359.881z"
							/>
						<path style="fill:#BDE3F8;" d="M79.704,303.21c-1.144,0-2.265-0.56-2.936-1.589c-1.056-1.62-0.598-3.788,1.021-4.844
							c37.556-24.474,67.257-65.709,67.553-66.122c1.124-1.573,3.309-1.938,4.882-0.813c1.572,1.123,1.937,3.309,0.813,4.882
							c-1.237,1.732-30.739,42.707-69.427,67.919C81.021,303.027,80.358,303.21,79.704,303.21z"/>
					</g>
				</g>
			</g>
		</g>
		<g id="Layer_4_copy_4-2">
			<path style="fill:#D6F0FA;" d="M136.4,205.5c-7.94-38.33-29.1-117.41-95.71-100.48c-67.4,17.13-39.46,94.84,0.47,122.29
				S143.23,255.35,169.31,249c14.81-3.61-24.98-5.17-32.92-43.5H136.4z"/>
			<g>
				<defs>
					<path id="SVGID_00000114762636057163664270000000198063973462690196_" d="M136.4,205.5c-7.94-38.33-29.1-117.41-95.71-100.48
						c-67.4,17.13-39.46,94.84,0.47,122.29S143.23,255.35,169.31,249c14.81-3.61-24.98-5.17-32.92-43.5H136.4z"/>
				</defs>
				<clipPath id="SVGID_00000145779343652567065500000006801256466616208258_">
					<use xlink:href="#SVGID_00000114762636057163664270000000198063973462690196_"  style="overflow:visible;"/>
				</clipPath>
				<g style="clip-path:url(#SVGID_00000145779343652567065500000006801256466616208258_);">
					<g>
						<path style="fill:#BDE3F8;" d="M42.641,177.024c-17.012,0-38.716-1.588-58.519-7.804c-1.844-0.579-2.87-2.543-2.291-4.388
							c0.579-1.844,2.542-2.871,4.388-2.291c32.785,10.292,72.338,7.23,83.059,6.133c2.968-37.998-0.202-76.317-0.235-76.709
							c-0.163-1.926,1.266-3.62,3.192-3.783c1.928-0.167,3.62,1.266,3.783,3.192c0.035,0.408,3.416,41.235,0,80.757
							c-0.141,1.634-1.398,2.951-3.024,3.168C71.996,175.432,59.669,177.023,42.641,177.024z M72.53,171.83h0.01H72.53z"/>
						<path style="fill:#BDE3F8;" d="M133.021,247.59c-0.947,0-1.89-0.382-2.58-1.134c-1.932-2.106-47.469-51.815-60.859-72.75
							c-1.042-1.628-0.566-3.792,1.062-4.834c1.629-1.042,3.792-0.565,4.834,1.062c13.063,20.425,59.651,71.279,60.121,71.79
							c1.307,1.425,1.211,3.639-0.213,4.945C134.714,247.286,133.866,247.59,133.021,247.59z"/>
					</g>
				</g>
			</g>
		</g>
	</g>
	<g id="arms_copy_3">
		<g id="Layer_9_copy_4">
			<path style="fill:#898995;" d="M354.861,282.227c-9.054,0-15.536-1.089-17.121-1.383l7.299-39.328l-0.112-0.021
				c0.238,0.04,23.987,3.994,39.784-7.494c8.105-5.896,12.959-15.182,14.838-28.389l39.602,5.636
				c-3.46,24.314-13.978,42.938-31.26,55.353C389.932,279.502,369.182,282.227,354.861,282.227z"/>
			<g>
				<defs>
					<path id="SVGID_00000150088587751581635790000008364824385339244680_" d="M354.86,282.22c-9.05,0-15.54-1.09-17.12-1.38
						l7.3-39.33l-0.11-0.02c0.24,0.04,23.98,4,39.78-7.49c8.11-5.9,12.96-15.18,14.84-28.39l39.6,5.64
						c-3.46,24.32-13.98,42.94-31.26,55.36c-17.96,12.9-38.7,15.62-53.02,15.62L354.86,282.22z"/>
				</defs>
				<clipPath id="SVGID_00000094616139524216801790000000734887682531104665_">
					<use xlink:href="#SVGID_00000150088587751581635790000008364824385339244680_"  style="overflow:visible;"/>
				</clipPath>
				<g style="clip-path:url(#SVGID_00000094616139524216801790000000734887682531104665_);">
					<g>
						
							<rect x="408.444" y="209.956" transform="matrix(0.4535 -0.8912 0.8912 0.4535 17.1721 495.2562)" style="fill:#B8B8BF;" width="8.001" height="47.339"/>
						
							<rect x="390.886" y="229.123" transform="matrix(0.7985 -0.6021 0.6021 0.7985 -71.4621 288.3102)" style="fill:#B8B8BF;" width="7.999" height="43.534"/>
						
							<rect x="368.38" y="239.569" transform="matrix(0.9792 -0.2027 0.2027 0.9792 -45.2238 80.8883)" style="fill:#B8B8BF;" width="8" height="43.422"/>
					</g>
				</g>
			</g>
			<g>
				<path style="fill:#010019;" d="M434.55,225.64c-20.63,2.53-40.27-10.72-45.64-30.8c-5.69-21.28,5.73-42.82,25.84-50.31
					c1.14-0.43,2.42,0.11,2.9,1.23l8.16,19.06c0.47,1.1,0.03,2.4-1.05,2.91c-6.95,3.31-12.48,11.99-10.97,19.38
					c1.77,8.67,10.26,14.28,18.92,12.51c8.67-1.77,14.28-10.26,12.51-18.92c-0.51-2.51-1.45-5.53-2.96-7.78
					c-0.64-0.96-0.51-2.24,0.36-3.01l15.58-13.7c0.93-0.82,2.35-0.74,3.19,0.17c5.01,5.47,7.79,11.61,9.32,19.12
					c4.86,23.82-11.55,47.12-36.15,50.14H434.55z"/>
				<circle style="fill:#F2B705;" cx="418.71" cy="209.91" r="5.94"/>
			</g>
		</g>
	</g>
	<g id="arms-under_copy">
		<path style="fill:#898995;" d="M84.944,291.018c-1.846-13.508,2.339-27.97,11.193-38.688c6.411-7.76,18.232-17.235,38.143-18.312
			l2.159,39.941c-6.581,0.356-8.751,2.983-9.465,3.847c-2.181,2.64-2.629,6.108-2.399,7.795L84.944,291.018z"/>
	</g>
	<g id="body_copy_3">
		<path style="fill:#3A3B4F;" d="M228.57,406.56c0,0,7.76,41.91,16.34,42.41s16.5-36.96,17.16-42.41S228.57,406.56,228.57,406.56z"
			/>
		<g>
			
				<rect x="187.635" y="21.253" transform="matrix(0.9859 -0.1672 0.1672 0.9859 -7.732 32.6693)" style="fill:#3A3B4F;" width="5" height="81.994"/>
			<circle style="fill:#F2B705;" cx="181.83" cy="18.94" r="15.16"/>
		</g>
		<g>
			
				<rect x="255.252" y="57.75" transform="matrix(0.1172 -0.9931 0.9931 0.1172 201.6978 347.4016)" style="fill:#3A3B4F;" width="82.005" height="4.999"/>
			<circle style="fill:#F2B705;" cx="301.06" cy="17.02" r="15.16"/>
		</g>
		<path style="fill:#F2B705;" d="M245.92,91.67c43.56,0,92.05,0.44,107.89,34.76s15.1,163.79,10.12,191.34
			c-6.6,36.52-21.56,89.5-108.25,92.03c-86.65,2.53-120.13-40.49-127.17-93.29c-6.69-50.16-4.4-146.96,6.16-183.48
			s67.24-41.36,111.24-41.36L245.92,91.67z"/>
		<g>
			<defs>
				<path id="SVGID_00000095330570249592604300000005159786040972338358_" d="M245.92,91.67c43.56,0,92.05,0.44,107.89,34.76
					s15.1,163.79,10.12,191.34c-6.6,36.52-21.56,89.5-108.25,92.03c-86.65,2.53-120.13-40.49-127.17-93.29
					c-6.69-50.16-4.4-146.96,6.16-183.48c10.56-36.52,67.24-41.36,111.24-41.36H245.92z"/>
			</defs>
			<clipPath id="SVGID_00000103962581435084026920000012756224022339819413_">
				<use xlink:href="#SVGID_00000095330570249592604300000005159786040972338358_"  style="overflow:visible;"/>
			</clipPath>
			<g style="clip-path:url(#SVGID_00000103962581435084026920000012756224022339819413_);">
				<g>
					<circle style="fill:#F29A1D;" cx="144.42" cy="220.37" r="36.34"/>
					<circle style="fill:#F29A1D;" cx="346.54" cy="220.37" r="36.34"/>
				</g>
			</g>
		</g>
		<g>
			<defs>
				<path id="SVGID_00000117672554574526641330000011226232829494944385_" d="M245.92,91.67c43.56,0,92.05,0.44,107.89,34.76
					s15.1,163.79,10.12,191.34c-6.6,36.52-21.56,89.5-108.25,92.03c-86.65,2.53-120.13-40.49-127.17-93.29
					c-6.69-50.16-4.4-146.96,6.16-183.48c10.56-36.52,67.24-41.36,111.24-41.36H245.92z"/>
			</defs>
			<clipPath id="SVGID_00000182512224190412141470000016629162370596558471_">
				<use xlink:href="#SVGID_00000117672554574526641330000011226232829494944385_"  style="overflow:visible;"/>
			</clipPath>
			<g style="clip-path:url(#SVGID_00000182512224190412141470000016629162370596558471_);">
				<g>
					<path style="fill:#3A3B4F;" d="M379.77,226.53c0,0-58.13,17.6-134.45,17.6s-140.56-17.6-140.56-17.6v64.68
						c0,0,44.71,16.33,141.16,16.33s136.05-18.53,136.05-18.53L379.77,226.53L379.77,226.53z"/>
					<path style="fill:#3A3B4F;" d="M380.31,344.23c0,0-58.36,16.81-134.68,15.78c-76.31-1.04-140.31-19.51-140.31-19.51
						l-0.88,64.68c0,0,44.48,16.93,140.93,18.24c96.44,1.31,136.29-16.68,136.29-16.68L380.31,344.23L380.31,344.23z"/>
				</g>
			</g>
		</g>
	</g>
	<g id="face_copy_3">
		<path style="fill:#FFFFFF;" d="M165.78,141.54c23.53-11.13,55.94-1,63.32,30.93c7.68,33.23-19.17,58.54-53.73,47.92
			c-38.61-11.86-38.18-65.33-9.6-78.85L165.78,141.54z"/>
		<g>
			<path style="fill:#3A3B4F;" d="M191.14,226.867c-5.463,0-11.159-0.875-16.945-2.653c-18.773-5.767-31.342-21.938-32.802-42.205
				c-1.391-19.297,7.718-37.014,22.666-44.084l0.842-0.384c13.334-6.001,29.028-5.811,42.172,0.554
				c13.206,6.394,22.412,18.282,25.924,33.475c3.915,16.94-0.521,33.362-11.867,43.929
				C213.084,222.993,202.631,226.867,191.14,226.867z M167.06,145.359c-11.734,5.81-18.828,20.234-17.687,36.075
				c1.236,17.152,11.394,30.286,27.172,35.132c15.149,4.654,29.412,2.132,39.133-6.922c9.365-8.723,12.837-21.944,9.525-36.273
				c-2.955-12.787-10.632-22.758-21.615-28.077c-11.262-5.452-24.755-5.503-36.097-0.139L167.06,145.359z"/>
			<path style="fill:#3A3B4F;" d="M232.872,179.582l-5.137-6.133c0.408-0.343,10.165-8.382,24.291-7.583l-0.451,7.987
				C240.676,173.246,232.949,179.519,232.872,179.582z"/>
		</g>
		<path style="fill:#010019;" d="M211.68,176.77c0.09,7.99-3.9,12.85-8.89,12.9c-4.98,0.05-9.07-4.71-9.16-12.71
			c-0.09-7.99,3.9-12.99,8.88-13.04c4.98-0.05,9.08,4.85,9.16,12.85H211.68z"/>
		<path style="fill:#3A3B4F;" d="M252.861,219.505c-6.165,0-14.983-6.574-16.033-7.374c-0.878-0.669-1.048-1.923-0.379-2.802
			c0.668-0.877,1.923-1.049,2.802-0.38c3.714,2.826,10.856,7.089,14.196,6.511c3.342-0.582,8.615-7.017,11.154-10.937
			c0.601-0.926,1.838-1.191,2.766-0.592c0.927,0.6,1.192,1.837,0.593,2.765c-0.769,1.188-7.683,11.636-13.827,12.705
			C253.726,219.472,253.3,219.505,252.861,219.505z"/>
		<path style="fill:#3A3B4F;" d="M215.34,107.72c4.94,14.81-26.74,19.68-30.05,10.72C182.68,111.39,212.19,98.27,215.34,107.72z"/>
	</g>
	<g id="arm-top_copy">
		<g id="Layer_9_copy_4-2">
			<path style="fill:#898995;" d="M141.56,335.79c-11.6,0-20.88-2.91-27.86-6.41c-15.57-7.82-26.59-22.52-28.76-38.37
				c-2.39-17.52,5.19-35.76,19.32-46.49c2.22-1.75,5.56-3.6,5.56-3.6c17.44-1.91,14.1,10.76,15.69,39.3c0,0-0.2,0.39-0.41,1.08
				c-0.56,1.74-0.65,3.38-0.52,4.3c0.21,1.57,2.23,5.6,7.08,8.04c4.98,2.5,16.47,4.98,37.37-6.55l19.33,35.02
				c-18.41,10.16-34,13.69-46.79,13.69L141.56,335.79z"/>
			<g>
				<defs>
					<path id="SVGID_00000111870926958876788610000007251422946066531458_" d="M141.56,335.79c-11.6,0-20.88-2.91-27.86-6.41
						c-15.57-7.82-26.59-22.52-28.76-38.37c-2.39-17.52,5.19-35.76,19.32-46.49c2.22-1.75,5.56-3.6,5.56-3.6
						c17.44-1.91,14.1,10.76,15.69,39.3c0,0-0.2,0.39-0.41,1.08c-0.56,1.74-0.65,3.38-0.52,4.3c0.21,1.57,2.23,5.6,7.08,8.04
						c4.98,2.5,16.47,4.98,37.37-6.55l19.33,35.02c-18.41,10.16-34,13.69-46.79,13.69L141.56,335.79z"/>
				</defs>
				<clipPath id="SVGID_00000048501771684761035300000009837207781360677518_">
					<use xlink:href="#SVGID_00000111870926958876788610000007251422946066531458_"  style="overflow:visible;"/>
				</clipPath>
				<g style="clip-path:url(#SVGID_00000048501771684761035300000009837207781360677518_);">
					<g>
						
							<rect x="150" y="288.499" transform="matrix(0.9729 -0.2311 0.2311 0.9729 -68.3143 44.0804)" style="fill:#B8B8BF;" width="8" height="50.281"/>
						
							<rect x="101.954" y="308.245" transform="matrix(0.3413 -0.94 0.94 0.3413 -210.9742 323.4291)" style="fill:#B8B8BF;" width="46.651" height="8"/>
						
							<rect x="77.91" y="287.245" transform="matrix(0.968 -0.251 0.251 0.968 -69.8103 35.0698)" style="fill:#B8B8BF;" width="49.37" height="8"/>
						
							<rect x="112" y="238.669" transform="matrix(0.7713 -0.6365 0.6365 0.7713 -140.1583 133.7287)" style="fill:#B8B8BF;" width="8" height="46.442"/>
					</g>
				</g>
			</g>
			<g>
				<path style="fill:#1ABAC2;" d="M264.331,209.935l23.598,22.347l-45.505,48.053c-6.168,6.513-16.459,6.793-22.972,0.626l0,0
					c-6.513-6.168-6.793-16.459-0.626-22.972L264.331,209.935L264.331,209.935z"/>
				
					<rect x="250.146" y="216.045" transform="matrix(0.6876 -0.7261 0.7261 0.6876 -85.7089 265.3857)" style="fill:#0F94A4;" width="30.81" height="32.5"/>
				<g>
					<circle style="fill:#EFF9FE;" cx="324.15" cy="171.61" r="68.94"/>
					<path style="fill:#1ABAC2;" d="M324.15,249.55c-42.977,0-77.94-34.964-77.94-77.94c0-42.977,34.964-77.94,77.94-77.94
						c42.976,0,77.939,34.964,77.939,77.94C402.09,214.586,367.126,249.55,324.15,249.55z M324.15,111.67
						c-33.051,0-59.94,26.889-59.94,59.94c0,33.051,26.89,59.94,59.94,59.94s59.939-26.889,59.939-59.94
						C384.09,138.559,357.201,111.67,324.15,111.67z"/>
				</g>
				<path style="fill:#010019;" d="M345.19,170.22c-0.81,18.64-10.72,29.44-22.33,28.94c-11.62-0.51-20.55-12.13-19.74-30.77
					s10.73-29.77,22.35-29.26S346,151.58,345.19,170.22L345.19,170.22z"/>
			</g>
			<g>
				<path style="fill:#010019;" d="M184.34,324.58c-17.94-10.49-25.53-32.94-17.62-52.16c8.38-20.37,30.52-30.58,51.05-24.35
					c1.17,0.35,1.86,1.56,1.56,2.74l-5.07,20.1c-0.29,1.16-1.43,1.92-2.6,1.68c-7.54-1.58-17.19,1.97-20.47,8.76
					c-3.85,7.96-0.5,17.57,7.47,21.42c7.96,3.85,17.57,0.5,21.42-7.47c1.11-2.3,2.2-5.28,2.36-7.99c0.07-1.16,0.95-2.1,2.11-2.18
					l20.69-1.45c1.24-0.09,2.32,0.84,2.43,2.07c0.66,7.39-0.84,13.95-4.18,20.85c-10.57,21.89-37.75,30.47-59.15,17.96V324.58z"/>
				<circle style="fill:#F2B705;" cx="181.27" cy="302.46" r="5.94"/>
			</g>
			<path style="fill:#F2B705;" d="M259.93,26.92c-0.007,0-0.014,0-0.021,0c-0.576-0.008-1.097-0.345-1.34-0.868L248.7,4.823
				L240.446,19.9c-0.245,0.447-0.7,0.74-1.209,0.776c-0.501,0.037-1-0.188-1.307-0.596l-6.083-8.105l-8.07,12.393
				c-0.292,0.448-0.796,0.704-1.335,0.68c-0.534-0.028-1.013-0.338-1.257-0.814l-7.027-13.724l-3.09,5.323
				c-0.269,0.462-0.763,0.747-1.297,0.747h-6.39c-0.829,0-1.5-0.671-1.5-1.5s0.671-1.5,1.5-1.5h5.526l4.037-6.953
				c0.276-0.475,0.791-0.754,1.337-0.747c0.549,0.015,1.045,0.328,1.295,0.816l7.1,13.866l7.828-12.021
				c0.267-0.411,0.718-0.665,1.207-0.681c0.487-0.019,0.956,0.207,1.25,0.599l5.973,7.958l8.562-15.638
				c0.271-0.497,0.841-0.79,1.364-0.779c0.566,0.019,1.073,0.354,1.312,0.867l9.806,21.094l7.812-15.69
				c0.261-0.523,0.794-0.86,1.387-0.831c0.584,0.017,1.105,0.372,1.335,0.91l3.231,7.56h5.77c0.828,0,1.5,0.671,1.5,1.5
				c0,0.829-0.672,1.5-1.5,1.5h-6.76c-0.601,0-1.144-0.358-1.379-0.911l-2.345-5.485l-7.754,15.574
				C261.019,26.598,260.498,26.92,259.93,26.92z"/>
		</g>
	</g>
</g>
</svg>
