<?xml version="1.0" encoding="iso-8859-1"?>
<!-- Generator: Adobe Illustrator 29.8.1, SVG Export Plug-In . SVG Version: 9.03 Build 0)  -->
<svg version="1.1" id="Layer_2_00000018209035950198438590000010059970816951420549_"
	 xmlns="http://www.w3.org/2000/svg" xmlns:xlink="http://www.w3.org/1999/xlink" x="0px" y="0px" viewBox="0 0 518.98 448.62"
	 style="enable-background:new 0 0 518.98 448.62;" xml:space="preserve">
<g id="_01_-_neutral_hello">
	<g id="wings">
		<g id="Layer_5">
			<path style="fill:#D6F0FA;" d="M365.02,248.24c0.13-2.34,2.01-4.19,4.35-4.31c24.3-1.19,80.87,1.47,100.74,48.45
				c10.29,24.33-5.59,51.13-29.74,58.54c-25.27,7.75-58.26-5.52-67.97-43.43c-7.8-30.48-7.84-51.02-7.39-59.26L365.02,248.24z"/>
			<g>
				<defs>
					<path id="SVGID_1_" d="M365.02,248.24c0.13-2.34,2.01-4.19,4.35-4.31c24.3-1.19,80.87,1.47,100.74,48.45
						c10.29,24.33-5.59,51.13-29.74,58.54c-25.27,7.75-58.26-5.52-67.97-43.43c-7.8-30.48-7.84-51.02-7.39-59.26L365.02,248.24z"/>
				</defs>
				<clipPath id="SVGID_00000071552729433680064010000007011880675245909151_">
					<use xlink:href="#SVGID_1_"  style="overflow:visible;"/>
				</clipPath>
				<g style="clip-path:url(#SVGID_00000071552729433680064010000007011880675245909151_);">
					<g>
						<path style="fill:#BDE3F8;" d="M430.572,359.521c-1.358,0-2.65-0.796-3.22-2.123c-10.831-25.294-9.943-56.821-9.9-58.151
							c0.053-1.64,1.237-3.021,2.849-3.326c25.687-4.849,52.674-5.325,52.944-5.33c1.904-0.001,3.523,1.512,3.554,3.444
							c0.031,1.933-1.511,3.524-3.443,3.556c-0.254,0.004-24.728,0.439-48.927,4.693c0.05,8.196,0.947,32.716,9.359,52.358
							c0.761,1.777-0.063,3.834-1.84,4.596C431.499,359.43,431.031,359.521,430.572,359.521z"/>
						<path style="fill:#BDE3F8;" d="M420.947,302.86c-0.655,0-1.318-0.184-1.908-0.567c-38.688-25.211-68.19-66.186-69.428-67.918
							c-1.123-1.573-0.759-3.759,0.814-4.882c1.571-1.123,3.759-0.76,4.882,0.813c0.296,0.413,29.997,41.648,67.554,66.121
							c1.619,1.056,2.076,3.224,1.021,4.844C423.212,302.3,422.091,302.86,420.947,302.86z"/>
					</g>
				</g>
			</g>
		</g>
		<g id="Layer_4">
			<path style="fill:#D6F0FA;" d="M364.25,205.14c7.94-38.33,29.1-117.41,95.71-100.48c67.4,17.13,39.46,94.84-0.47,122.29
				s-102.07,28.04-128.15,21.69c-14.81-3.61,24.98-5.17,32.92-43.5H364.25z"/>
			<g>
				<defs>
					<path id="SVGID_00000179631168764532622190000016171659258530423993_" d="M364.25,205.14c7.94-38.33,29.1-117.41,95.71-100.48
						c67.4,17.13,39.46,94.84-0.47,122.29s-102.07,28.04-128.15,21.69c-14.81-3.61,24.98-5.17,32.92-43.5H364.25z"/>
				</defs>
				<clipPath id="SVGID_00000134954823609646957850000016148193572715009208_">
					<use xlink:href="#SVGID_00000179631168764532622190000016171659258530423993_"  style="overflow:visible;"/>
				</clipPath>
				<g style="clip-path:url(#SVGID_00000134954823609646957850000016148193572715009208_);">
					<g>
						<path style="fill:#BDE3F8;" d="M458.008,176.664c-17.031,0-29.354-1.592-30.35-1.725c-1.627-0.217-2.884-1.534-3.025-3.168
							c-3.416-39.521-0.035-80.349,0-80.757c0.162-1.926,1.845-3.363,3.782-3.192c1.927,0.163,3.355,1.856,3.192,3.783
							c-0.033,0.392-3.203,38.711-0.235,76.709c10.723,1.097,50.272,4.158,83.061-6.134c1.841-0.579,3.809,0.446,4.387,2.291
							c0.579,1.844-0.446,3.809-2.291,4.388C496.728,175.075,475.019,176.663,458.008,176.664z"/>
						<path style="fill:#BDE3F8;" d="M367.629,247.24c-0.846,0-1.693-0.305-2.365-0.921c-1.424-1.307-1.52-3.521-0.213-4.945
							c0.469-0.511,47.058-51.364,60.121-71.789c1.042-1.629,3.206-2.105,4.834-1.063c1.629,1.042,2.104,3.206,1.062,4.834
							c-13.39,20.936-58.928,70.645-60.859,72.75C369.519,246.858,368.575,247.24,367.629,247.24z"/>
					</g>
				</g>
			</g>
		</g>
		<g id="Layer_5_copy">
			<path style="fill:#D6F0FA;" d="M153.96,248.24c-0.13-2.34-2.01-4.19-4.35-4.31c-24.3-1.19-80.87,1.47-100.74,48.45
				c-10.29,24.33,5.59,51.13,29.74,58.54c25.27,7.75,58.26-5.52,67.97-43.43c7.8-30.48,7.84-51.02,7.39-59.26L153.96,248.24z"/>
			<g>
				<defs>
					<path id="SVGID_00000078028434617141996570000007070024115188644758_" d="M153.96,248.24c-0.13-2.34-2.01-4.19-4.35-4.31
						c-24.3-1.19-80.87,1.47-100.74,48.45c-10.29,24.33,5.59,51.13,29.74,58.54c25.27,7.75,58.26-5.52,67.97-43.43
						c7.8-30.48,7.84-51.02,7.39-59.26L153.96,248.24z"/>
				</defs>
				<clipPath id="SVGID_00000111878047952161453690000016123956958931671464_">
					<use xlink:href="#SVGID_00000078028434617141996570000007070024115188644758_"  style="overflow:visible;"/>
				</clipPath>
				<g style="clip-path:url(#SVGID_00000111878047952161453690000016123956958931671464_);">
					<g>
						<path style="fill:#BDE3F8;" d="M88.398,359.521c-0.46,0-0.927-0.091-1.376-0.283c-1.777-0.762-2.601-2.818-1.839-4.596
							c8.412-19.643,9.309-44.162,9.358-52.358c-24.199-4.254-48.672-4.689-48.926-4.693c-1.933-0.031-3.475-1.623-3.444-3.556
							c0.031-1.932,1.599-3.451,3.555-3.444c0.27,0.005,27.257,0.481,52.944,5.33c1.611,0.305,2.795,1.687,2.849,3.326
							c0.043,1.33,0.931,32.857-9.901,58.151C91.049,358.725,89.756,359.521,88.398,359.521z"/>
						<path style="fill:#BDE3F8;" d="M98.033,302.86c-1.144,0-2.265-0.56-2.936-1.589c-1.055-1.62-0.598-3.788,1.022-4.844
							c37.557-24.473,67.257-65.708,67.553-66.121c1.124-1.573,3.309-1.937,4.882-0.813c1.572,1.123,1.937,3.309,0.813,4.882
							c-1.237,1.732-30.739,42.707-69.428,67.918C99.351,302.676,98.688,302.86,98.033,302.86z"/>
					</g>
				</g>
			</g>
		</g>
		<g id="Layer_4_copy">
			<path style="fill:#D6F0FA;" d="M154.73,205.14c-7.94-38.33-29.1-117.41-95.71-100.48c-67.4,17.13-39.46,94.84,0.47,122.29
				s102.07,28.04,128.15,21.69c14.81-3.61-24.98-5.17-32.92-43.5H154.73z"/>
			<g>
				<defs>
					<path id="SVGID_00000156578113111139504100000006978993871872781468_" d="M154.73,205.14c-7.94-38.33-29.1-117.41-95.71-100.48
						c-67.4,17.13-39.46,94.84,0.47,122.29s102.07,28.04,128.15,21.69c14.81-3.61-24.98-5.17-32.92-43.5H154.73z"/>
				</defs>
				<clipPath id="SVGID_00000105423329253786679450000009430088735201926287_">
					<use xlink:href="#SVGID_00000156578113111139504100000006978993871872781468_"  style="overflow:visible;"/>
				</clipPath>
				<g style="clip-path:url(#SVGID_00000105423329253786679450000009430088735201926287_);">
					<g>
						<path style="fill:#BDE3F8;" d="M60.972,176.664c-17.012,0-38.717-1.588-58.52-7.805c-1.844-0.579-2.87-2.543-2.291-4.388
							c0.579-1.844,2.54-2.87,4.388-2.291c32.786,10.292,72.339,7.231,83.059,6.134c2.968-37.998-0.202-76.317-0.235-76.709
							c-0.163-1.926,1.266-3.62,3.192-3.783c1.925-0.171,3.62,1.266,3.783,3.192c0.035,0.408,3.416,41.235,0,80.757
							c-0.141,1.634-1.398,2.951-3.024,3.168C90.326,175.072,78,176.663,60.972,176.664z M90.86,171.47h0.01H90.86z"/>
						<path style="fill:#BDE3F8;" d="M151.351,247.24c-0.947,0-1.89-0.382-2.58-1.134c-1.932-2.105-47.469-51.814-60.859-72.75
							c-1.042-1.628-0.566-3.792,1.062-4.834c1.628-1.042,3.793-0.566,4.834,1.062c13.063,20.425,59.651,71.278,60.121,71.789
							c1.307,1.425,1.211,3.639-0.213,4.945C153.044,246.935,152.196,247.24,151.351,247.24z"/>
					</g>
				</g>
			</g>
		</g>
	</g>
	<g id="arms">
		<g id="Layer_9">
			<path style="fill:#898995;" d="M373.191,281.867c-9.053,0-15.536-1.089-17.121-1.383l7.299-39.328l-0.112-0.021
				c0.238,0.041,23.989,3.995,39.784-7.494c8.105-5.896,12.959-15.182,14.838-28.389l39.602,5.636
				c-3.46,24.313-13.978,42.938-31.259,55.353C408.262,279.142,387.512,281.867,373.191,281.867z"/>
			<g>
				<defs>
					<path id="SVGID_00000016066751358480083530000011193005849095396759_" d="M373.19,281.87c-9.05,0-15.54-1.09-17.12-1.38
						l7.3-39.33l-0.11-0.02c0.24,0.04,23.98,4,39.78-7.49c8.11-5.9,12.96-15.18,14.84-28.39l39.6,5.64
						c-3.46,24.32-13.98,42.94-31.26,55.36c-17.96,12.9-38.7,15.62-53.02,15.62L373.19,281.87z"/>
				</defs>
				<clipPath id="SVGID_00000032628981473554672040000005097996726140971650_">
					<use xlink:href="#SVGID_00000016066751358480083530000011193005849095396759_"  style="overflow:visible;"/>
				</clipPath>
				<g style="clip-path:url(#SVGID_00000032628981473554672040000005097996726140971650_);">
					<g>
						
							<rect x="426.775" y="209.598" transform="matrix(0.4537 -0.8912 0.8912 0.4537 27.454 511.3247)" style="fill:#B8B8BF;" width="8" height="47.344"/>
						
							<rect x="409.204" y="228.764" transform="matrix(0.7985 -0.6019 0.6019 0.7985 -67.5634 299.1966)" style="fill:#B8B8BF;" width="8.001" height="43.543"/>
						
							<rect x="386.7" y="239.209" transform="matrix(0.9792 -0.2027 0.2027 0.9792 -44.7706 84.5935)" style="fill:#B8B8BF;" width="8" height="43.422"/>
					</g>
				</g>
			</g>
			<g>
				<path style="fill:#010019;" d="M452.88,225.29c-20.63,2.53-40.27-10.72-45.64-30.8c-5.69-21.28,5.73-42.82,25.84-50.31
					c1.14-0.43,2.42,0.11,2.9,1.23l8.16,19.06c0.47,1.1,0.03,2.4-1.05,2.91c-6.95,3.31-12.48,11.99-10.97,19.38
					c1.77,8.67,10.26,14.28,18.92,12.51c8.67-1.77,14.28-10.26,12.51-18.92c-0.51-2.51-1.45-5.53-2.96-7.78
					c-0.64-0.96-0.51-2.24,0.36-3.01l15.58-13.7c0.93-0.82,2.35-0.74,3.19,0.17c5.01,5.47,7.79,11.61,9.32,19.12
					c4.86,23.82-11.55,47.12-36.15,50.14H452.88z"/>
				<circle style="fill:#F2B705;" cx="437.03" cy="209.55" r="5.94"/>
			</g>
		</g>
		<g id="Layer_9_copy">
			<path style="fill:#898995;" d="M81.524,334.49c-3.044-24.371,2.214-45.103,15.631-61.62
				c22.754-28.015,59.794-31.82,63.943-32.162l3.283,39.865l0.114-0.01c-0.241,0.022-24.191,2.443-36.415,17.677
				c-6.274,7.817-8.52,18.053-6.866,31.291L81.524,334.49z"/>
			<g>
				<defs>
					<path id="SVGID_00000012443553995396611160000017205143794933476237_" d="M144.22,243.87c8.74-2.38,15.28-3.03,16.88-3.16
						l3.28,39.87h0.11c-0.24,0.01-24.19,2.43-36.41,17.67c-6.27,7.82-8.52,18.05-6.86,31.29l-39.69,4.96
						c-3.05-24.37,2.21-45.11,15.63-61.63C111.1,255.71,130.4,247.63,144.22,243.87z"/>
				</defs>
				<clipPath id="SVGID_00000021797519896651238720000014628517277771435395_">
					<use xlink:href="#SVGID_00000012443553995396611160000017205143794933476237_"  style="overflow:visible;"/>
				</clipPath>
				<g style="clip-path:url(#SVGID_00000021797519896651238720000014628517277771435395_);">
					<g>
						
							<rect x="97.42" y="282.218" transform="matrix(0.2039 -0.979 0.979 0.2039 -218.7178 342.8115)" style="fill:#B8B8BF;" width="8" height="47.334"/>
						
							<rect x="109.83" y="262.841" transform="matrix(0.6124 -0.7906 0.7906 0.6124 -180.8822 200.3206)" style="fill:#B8B8BF;" width="7.999" height="43.537"/>
						
							<rect x="128.82" y="246.967" transform="matrix(0.8917 -0.4527 0.4527 0.8917 -107.246 89.2408)" style="fill:#B8B8BF;" width="7.999" height="43.426"/>
					</g>
				</g>
			</g>
			<g>
				<path style="fill:#010019;" d="M82.18,319.39c19.24-7.86,41.68-0.23,52.12,17.74c11.07,19.04,5.71,42.82-11.73,55.33
					c-0.99,0.71-2.37,0.53-3.12-0.43l-12.87-16.25c-0.74-0.93-0.65-2.31,0.25-3.09c5.84-5.02,8.89-14.84,5.5-21.58
					c-3.98-7.9-13.65-11.09-21.55-7.1c-7.9,3.98-11.08,13.65-7.1,21.55c1.15,2.28,2.85,4.95,4.9,6.73c0.87,0.76,1.08,2.03,0.45,3
					L77.59,392.6c-0.68,1.03-2.07,1.33-3.12,0.67c-6.27-3.97-10.56-9.16-14.01-16C49.52,355.57,59.23,328.77,82.18,319.39
					L82.18,319.39z"/>
				<circle style="fill:#F2B705;" cx="101.61" cy="330.41" r="5.94"/>
			</g>
		</g>
	</g>
	<g id="body">
		<path style="fill:#3A3B4F;" d="M246.9,406.2c0,0,7.76,41.91,16.34,42.41c8.58,0.5,16.5-36.96,17.16-42.41S246.9,406.2,246.9,406.2
			z"/>
		<g>
			
				<rect x="205.96" y="20.892" transform="matrix(0.9859 -0.1673 0.1673 0.9859 -7.4171 35.7481)" style="fill:#3A3B4F;" width="5" height="82.006"/>
			<circle style="fill:#F2B705;" cx="200.16" cy="18.58" r="15.16"/>
		</g>
		<g>
			
				<rect x="273.577" y="57.395" transform="matrix(0.1172 -0.9931 0.9931 0.1172 218.223 365.2818)" style="fill:#3A3B4F;" width="81.995" height="4.999"/>
			<circle style="fill:#F2B705;" cx="319.38" cy="16.66" r="15.16"/>
		</g>
		<path style="fill:#F2B705;" d="M264.25,91.31c43.56,0,92.05,0.44,107.89,34.76c15.84,34.32,15.1,163.79,10.12,191.34
			c-6.6,36.52-21.56,89.5-108.25,92.03c-86.65,2.53-120.13-40.49-127.17-93.29c-6.69-50.16-4.4-146.96,6.16-183.48
			c10.4-35.97,67.24-41.36,111.24-41.36L264.25,91.31z"/>
		<g>
			<defs>
				<path id="SVGID_00000034772160347434761740000005796258015859008445_" d="M264.25,91.31c43.56,0,92.05,0.44,107.89,34.76
					c15.84,34.32,15.1,163.79,10.12,191.34c-6.6,36.52-21.56,89.5-108.25,92.03c-86.65,2.53-120.13-40.49-127.17-93.29
					c-6.69-50.16-4.4-146.96,6.16-183.48c10.4-35.97,67.24-41.36,111.24-41.36L264.25,91.31z"/>
			</defs>
			<clipPath id="SVGID_00000133520053923684808250000011190175995392872358_">
				<use xlink:href="#SVGID_00000034772160347434761740000005796258015859008445_"  style="overflow:visible;"/>
			</clipPath>
			<g style="clip-path:url(#SVGID_00000133520053923684808250000011190175995392872358_);">
				<g>
					<circle style="fill:#F29A1D;" cx="162.74" cy="220.02" r="36.34"/>
					<circle style="fill:#F29A1D;" cx="364.86" cy="220.02" r="36.34"/>
				</g>
			</g>
		</g>
		<g>
			<defs>
				<path id="SVGID_00000129884407163338233910000011582049877222026936_" d="M264.25,91.31c43.56,0,92.05,0.44,107.89,34.76
					c15.84,34.32,15.1,163.79,10.12,191.34c-6.6,36.52-21.56,89.5-108.25,92.03c-86.65,2.53-120.13-40.49-127.17-93.29
					c-6.69-50.16-4.4-146.96,6.16-183.48c10.4-35.97,67.24-41.36,111.24-41.36L264.25,91.31z"/>
			</defs>
			<clipPath id="SVGID_00000141444036109658546870000005957829328683792540_">
				<use xlink:href="#SVGID_00000129884407163338233910000011582049877222026936_"  style="overflow:visible;"/>
			</clipPath>
			<g style="clip-path:url(#SVGID_00000141444036109658546870000005957829328683792540_);">
				<g>
					<path style="fill:#3A3B4F;" d="M398.1,226.18c0,0-58.13,17.6-134.45,17.6s-140.56-17.6-140.56-17.6v64.68
						c0,0,44.71,16.33,141.16,16.33s136.05-18.53,136.05-18.53L398.1,226.18L398.1,226.18z"/>
					<path style="fill:#3A3B4F;" d="M398.64,343.88c0,0-58.36,16.81-134.68,15.78c-76.31-1.04-140.31-19.51-140.31-19.51
						l-0.88,64.68c0,0,44.48,16.93,140.93,18.24c96.44,1.31,136.29-16.68,136.29-16.68L398.64,343.88L398.64,343.88z"/>
				</g>
			</g>
		</g>
		<path style="fill:#F2B705;" d="M278.74,26.92c-0.007,0-0.014,0-0.021,0c-0.576-0.008-1.097-0.345-1.34-0.868l-9.86-21.228
			L259.266,19.9c-0.245,0.447-0.7,0.74-1.209,0.776c-0.504,0.041-1-0.188-1.307-0.596l-6.083-8.105l-8.071,12.393
			c-0.292,0.448-0.794,0.707-1.335,0.68c-0.534-0.028-1.013-0.338-1.257-0.814l-7.027-13.724l-3.09,5.323
			c-0.269,0.462-0.763,0.747-1.297,0.747h-6.39c-0.829,0-1.5-0.671-1.5-1.5s0.671-1.5,1.5-1.5h5.526l4.037-6.953
			c0.276-0.475,0.801-0.762,1.337-0.747c0.549,0.015,1.045,0.328,1.295,0.816l7.1,13.866l7.828-12.021
			c0.267-0.411,0.718-0.665,1.207-0.681c0.484-0.015,0.956,0.207,1.25,0.599l5.973,7.958l8.562-15.638
			c0.271-0.497,0.8-0.795,1.365-0.779c0.565,0.019,1.072,0.354,1.311,0.867l9.798,21.093l7.819-15.69
			c0.261-0.523,0.797-0.855,1.387-0.831c0.584,0.017,1.105,0.373,1.335,0.91l3.231,7.56h5.76c0.828,0,1.5,0.671,1.5,1.5
			c0,0.829-0.672,1.5-1.5,1.5h-6.75c-0.601,0-1.144-0.358-1.379-0.911l-2.346-5.487l-7.763,15.577
			C279.829,26.598,279.309,26.92,278.74,26.92z"/>
	</g>
	<g id="face">
		<path style="fill:#FFFFFF;" d="M187,137.96c24.27-9.42,55.87,3.01,60.94,35.39c5.28,33.69-23.32,57.01-57.03,43.95
			c-37.66-14.6-33.4-67.9-3.92-79.34H187z"/>
		<path style="fill:#FFFFFF;" d="M335.49,133.83c30.84,6.36,40.52,39.91,24.43,65.77c-14.79,23.78-61.29,26.35-73.5-4.71
			c-12.21-31.07,13.71-68.35,49.06-61.06H335.49z"/>
		<g>
			<path style="fill:#3A3B4F;" d="M209.744,225.015c-6.545,0-13.395-1.318-20.278-3.985c-18.312-7.1-29.69-24.132-29.693-44.451
				c-0.003-19.347,10.353-36.366,25.771-42.349l0.725-0.271c13.764-5.092,29.468-3.795,42.166,3.519
				c12.715,7.325,21.046,19.844,23.458,35.253c2.691,17.169-2.909,33.229-14.98,42.957
				C229.242,221.869,219.855,225.015,209.744,225.015z M188.035,141.848c-12.141,4.943-20.266,18.833-20.263,34.729
				c0.002,17.197,9.193,31.026,24.583,36.993c14.779,5.726,29.188,4.228,39.536-4.112c9.963-8.03,14.373-20.965,12.096-35.49
				c-2.031-12.969-8.973-23.467-19.548-29.559c-10.839-6.245-24.294-7.262-35.993-2.722L188.035,141.848z"/>
			<path style="fill:#3A3B4F;" d="M323.203,221.824c-1.628,0-3.263-0.073-4.902-0.223c-16.926-1.543-29.902-10.746-35.604-25.248
				c-6.661-16.949-3.3-36.383,8.772-50.719c11.125-13.212,27.701-19.103,44.41-15.804h0.009l0.409,0.083
				c14.732,3.038,25.955,11.955,31.601,25.109c6.255,14.573,4.542,32.027-4.582,46.692
				C355.619,214.088,339.912,221.824,323.203,221.824z M326.581,136.908c-11.11,0-21.38,4.839-28.992,13.879
				c-10.024,11.905-12.947,28.642-7.446,42.64c4.554,11.583,15.082,18.949,28.885,20.208c15.293,1.392,30.716-5.245,37.496-16.147
				c7.743-12.445,9.247-27.141,4.023-39.312c-4.534-10.564-13.571-17.777-25.474-20.346h-0.001l-0.399-0.083
				C331.944,137.185,329.237,136.908,326.581,136.908z"/>
			<path style="fill:#3A3B4F;" d="M250.395,180.7l-4.705-6.47c0.76-0.555,18.86-13.448,39.947-0.38l-4.215,6.8
				C265.006,170.475,250.983,180.278,250.395,180.7z"/>
		</g>
		<path style="fill:#010019;" d="M223.51,176.38c0,7.99-4.04,12.8-9.02,12.8s-9.02-4.81-9.02-12.8s4.04-12.94,9.02-12.94
			S223.51,168.39,223.51,176.38z"/>
		<path style="fill:#010019;" d="M326.15,175.44c0,7.99-4.04,12.8-9.02,12.8c-4.98,0-9.02-4.81-9.02-12.8s4.04-12.94,9.02-12.94
			S326.15,167.45,326.15,175.44z"/>
		<path style="fill:#3A3B4F;" d="M266.65,225.83c-6.233,0-14.837-9.094-15.798-10.131c-0.75-0.81-0.702-2.075,0.108-2.826
			c0.81-0.751,2.075-0.703,2.826,0.107c3.173,3.421,9.472,8.849,12.864,8.849s9.69-5.428,12.863-8.849
			c0.752-0.811,2.018-0.857,2.826-0.107c0.81,0.751,0.858,2.016,0.107,2.826C281.487,216.736,272.884,225.83,266.65,225.83z"/>
		<path style="fill:#3A3B4F;" d="M301.22,114.12c-0.81,15.6,31.03,11.82,31.83,2.3C333.68,108.93,301.74,104.17,301.22,114.12z"/>
		<path style="fill:#3A3B4F;" d="M227.54,113.46c1.96,15.49-30.07,14.08-31.57,4.65C194.79,110.69,226.29,103.58,227.54,113.46
			L227.54,113.46z"/>
	</g>
</g>
</svg>
