<?xml version="1.0" encoding="iso-8859-1"?>
<!-- Generator: Adobe Illustrator 29.8.1, SVG Export Plug-In . SVG Version: 9.03 Build 0)  -->
<svg version="1.1" id="Layer_2_00000070798970773433649550000005894929727855017872_"
	 xmlns="http://www.w3.org/2000/svg" xmlns:xlink="http://www.w3.org/1999/xlink" x="0px" y="0px" viewBox="0 0 518.98 448.62"
	 style="enable-background:new 0 0 518.98 448.62;" xml:space="preserve">
<g id="_03_-_answer_found">
	<g id="wings_copy_2">
		<g id="Layer_5_copy_3">
			<path style="fill:#D6F0FA;" d="M365.02,248.24c0.13-2.34,2.01-4.19,4.35-4.31c24.3-1.19,80.87,1.47,100.74,48.45
				c10.29,24.33-5.59,51.13-29.74,58.54c-25.27,7.75-58.26-5.52-67.97-43.43c-7.8-30.48-7.84-51.02-7.39-59.26L365.02,248.24z"/>
			<g>
				<defs>
					<path id="SVGID_1_" d="M365.02,248.24c0.13-2.34,2.01-4.19,4.35-4.31c24.3-1.19,80.87,1.47,100.74,48.45
						c10.29,24.33-5.59,51.13-29.74,58.54c-25.27,7.75-58.26-5.52-67.97-43.43c-7.8-30.48-7.84-51.02-7.39-59.26L365.02,248.24z"/>
				</defs>
				<clipPath id="SVGID_00000145028341080533396980000011057391928428301983_">
					<use xlink:href="#SVGID_1_"  style="overflow:visible;"/>
				</clipPath>
				<g style="clip-path:url(#SVGID_00000145028341080533396980000011057391928428301983_);">
					<g>
						<path style="fill:#BDE3F8;" d="M430.572,359.521c-1.358,0-2.65-0.796-3.22-2.123c-10.831-25.294-9.943-56.821-9.9-58.151
							c0.053-1.64,1.237-3.021,2.849-3.326c25.687-4.849,52.674-5.325,52.944-5.33c1.904-0.001,3.523,1.512,3.554,3.444
							c0.031,1.933-1.511,3.524-3.443,3.556c-0.254,0.004-24.728,0.439-48.927,4.693c0.05,8.196,0.947,32.716,9.359,52.358
							c0.761,1.777-0.063,3.834-1.84,4.596C431.499,359.43,431.031,359.521,430.572,359.521z"/>
						<path style="fill:#BDE3F8;" d="M420.947,302.86c-0.655,0-1.318-0.184-1.908-0.567c-38.688-25.211-68.19-66.186-69.428-67.918
							c-1.123-1.573-0.759-3.759,0.814-4.882c1.571-1.123,3.759-0.76,4.882,0.813c0.296,0.413,29.997,41.648,67.554,66.121
							c1.619,1.056,2.076,3.224,1.021,4.844C423.212,302.3,422.091,302.86,420.947,302.86z"/>
					</g>
				</g>
			</g>
		</g>
		<g id="Layer_4_copy_3">
			<path style="fill:#D6F0FA;" d="M364.25,205.14c7.94-38.33,29.1-117.41,95.71-100.48c67.4,17.13,39.46,94.84-0.47,122.29
				s-102.07,28.04-128.15,21.69c-14.81-3.61,24.98-5.17,32.92-43.5H364.25z"/>
			<g>
				<defs>
					<path id="SVGID_00000131366182770777159120000016120400032127092919_" d="M364.25,205.14c7.94-38.33,29.1-117.41,95.71-100.48
						c67.4,17.13,39.46,94.84-0.47,122.29s-102.07,28.04-128.15,21.69c-14.81-3.61,24.98-5.17,32.92-43.5H364.25z"/>
				</defs>
				<clipPath id="SVGID_00000103948125497243378090000007167103547663263375_">
					<use xlink:href="#SVGID_00000131366182770777159120000016120400032127092919_"  style="overflow:visible;"/>
				</clipPath>
				<g style="clip-path:url(#SVGID_00000103948125497243378090000007167103547663263375_);">
					<g>
						<path style="fill:#BDE3F8;" d="M458.008,176.664c-17.031,0-29.354-1.592-30.35-1.725c-1.627-0.217-2.884-1.534-3.025-3.168
							c-3.416-39.521-0.035-80.349,0-80.757c0.162-1.926,1.845-3.363,3.782-3.192c1.927,0.163,3.355,1.856,3.192,3.783
							c-0.033,0.392-3.203,38.711-0.235,76.709c10.723,1.097,50.272,4.158,83.061-6.134c1.841-0.579,3.809,0.446,4.387,2.291
							c0.579,1.844-0.446,3.809-2.291,4.388C496.728,175.075,475.019,176.663,458.008,176.664z"/>
						<path style="fill:#BDE3F8;" d="M367.629,247.24c-0.846,0-1.693-0.305-2.365-0.921c-1.424-1.307-1.52-3.521-0.213-4.945
							c0.469-0.511,47.058-51.364,60.121-71.789c1.042-1.629,3.206-2.105,4.834-1.063c1.629,1.042,2.104,3.206,1.062,4.834
							c-13.39,20.936-58.928,70.645-60.859,72.75C369.519,246.858,368.575,247.24,367.629,247.24z"/>
					</g>
				</g>
			</g>
		</g>
		<g id="Layer_5_copy_3-2">
			<path style="fill:#D6F0FA;" d="M153.96,248.24c-0.13-2.34-2.01-4.19-4.35-4.31c-24.3-1.19-80.87,1.47-100.74,48.45
				c-10.29,24.33,5.59,51.13,29.74,58.54c25.27,7.75,58.26-5.52,67.97-43.43c7.8-30.48,7.84-51.02,7.39-59.26L153.96,248.24z"/>
			<g>
				<defs>
					<path id="SVGID_00000005244097525982280260000011543237198443434123_" d="M153.96,248.24c-0.13-2.34-2.01-4.19-4.35-4.31
						c-24.3-1.19-80.87,1.47-100.74,48.45c-10.29,24.33,5.59,51.13,29.74,58.54c25.27,7.75,58.26-5.52,67.97-43.43
						c7.8-30.48,7.84-51.02,7.39-59.26L153.96,248.24z"/>
				</defs>
				<clipPath id="SVGID_00000174587032599296238100000010497660943504348863_">
					<use xlink:href="#SVGID_00000005244097525982280260000011543237198443434123_"  style="overflow:visible;"/>
				</clipPath>
				<g style="clip-path:url(#SVGID_00000174587032599296238100000010497660943504348863_);">
					<g>
						<path style="fill:#BDE3F8;" d="M88.398,359.521c-0.46,0-0.927-0.091-1.376-0.283c-1.777-0.762-2.601-2.818-1.839-4.596
							c8.412-19.643,9.309-44.162,9.358-52.358c-24.199-4.254-48.672-4.689-48.926-4.693c-1.933-0.031-3.475-1.623-3.444-3.556
							c0.031-1.932,1.599-3.451,3.555-3.444c0.27,0.005,27.257,0.481,52.944,5.33c1.611,0.305,2.795,1.687,2.849,3.326
							c0.043,1.33,0.931,32.857-9.901,58.151C91.049,358.725,89.756,359.521,88.398,359.521z"/>
						<path style="fill:#BDE3F8;" d="M98.033,302.86c-1.144,0-2.265-0.56-2.936-1.589c-1.055-1.62-0.598-3.788,1.022-4.844
							c37.557-24.473,67.257-65.708,67.553-66.121c1.124-1.573,3.309-1.937,4.882-0.813c1.572,1.123,1.937,3.309,0.813,4.882
							c-1.237,1.732-30.739,42.707-69.428,67.918C99.351,302.676,98.688,302.86,98.033,302.86z"/>
					</g>
				</g>
			</g>
		</g>
		<g id="Layer_4_copy_3-2">
			<path style="fill:#D6F0FA;" d="M154.73,205.14c-7.94-38.33-29.1-117.41-95.71-100.48c-67.4,17.13-39.46,94.84,0.47,122.29
				s102.07,28.04,128.15,21.69c14.81-3.61-24.98-5.17-32.92-43.5H154.73z"/>
			<g>
				<defs>
					<path id="SVGID_00000114765633007638781180000003358594237778499509_" d="M154.73,205.14c-7.94-38.33-29.1-117.41-95.71-100.48
						c-67.4,17.13-39.46,94.84,0.47,122.29s102.07,28.04,128.15,21.69c14.81-3.61-24.98-5.17-32.92-43.5H154.73z"/>
				</defs>
				<clipPath id="SVGID_00000121275410055057025050000001094783624766010764_">
					<use xlink:href="#SVGID_00000114765633007638781180000003358594237778499509_"  style="overflow:visible;"/>
				</clipPath>
				<g style="clip-path:url(#SVGID_00000121275410055057025050000001094783624766010764_);">
					<g>
						<path style="fill:#BDE3F8;" d="M60.972,176.664c-17.012,0-38.717-1.588-58.52-7.805c-1.844-0.579-2.87-2.543-2.291-4.388
							c0.579-1.844,2.54-2.87,4.388-2.291c32.786,10.292,72.339,7.231,83.059,6.134c2.968-37.998-0.202-76.317-0.235-76.709
							c-0.163-1.926,1.266-3.62,3.192-3.783c1.925-0.171,3.62,1.266,3.783,3.192c0.035,0.408,3.416,41.235,0,80.757
							c-0.141,1.634-1.398,2.951-3.024,3.168C90.326,175.072,78,176.663,60.972,176.664z M90.86,171.47h0.01H90.86z"/>
						<path style="fill:#BDE3F8;" d="M151.351,247.24c-0.947,0-1.89-0.382-2.58-1.134c-1.932-2.105-47.469-51.814-60.859-72.75
							c-1.042-1.628-0.566-3.792,1.062-4.834c1.628-1.042,3.793-0.566,4.834,1.062c13.063,20.425,59.651,71.278,60.121,71.789
							c1.307,1.425,1.211,3.639-0.213,4.945C153.044,246.935,152.196,247.24,151.351,247.24z"/>
					</g>
				</g>
			</g>
		</g>
	</g>
	<g id="arms_copy_2">
		<g id="Layer_9_copy_3">
			<path style="fill:#898995;" d="M375.286,263.203l-5.592-39.607l-0.113,0.017c0.238-0.037,24.005-3.844,35.323-19.76
				c5.811-8.17,7.458-18.521,5.038-31.645l39.336-7.255c4.456,24.156,0.409,45.161-12.026,62.432
				C416.163,256.672,379.408,262.621,375.286,263.203z"/>
			<g>
				<defs>
					<path id="SVGID_00000149380649868690390260000006678731780207063427_" d="M391.96,259.06c-8.58,2.88-15.08,3.91-16.67,4.14
						l-5.59-39.61l-0.11,0.02c0.24-0.04,24.01-3.85,35.32-19.76c5.81-8.17,7.45-18.52,5.03-31.64l39.34-7.26
						c4.46,24.15,0.41,45.16-12.02,62.43c-12.92,17.94-31.72,27.13-45.29,31.69L391.96,259.06z"/>
				</defs>
				<clipPath id="SVGID_00000085965415716738341960000012984683379211193784_">
					<use xlink:href="#SVGID_00000149380649868690390260000006678731780207063427_"  style="overflow:visible;"/>
				</clipPath>
				<g style="clip-path:url(#SVGID_00000085965415716738341960000012984683379211193784_);">
					<g>
						
							<rect x="427.085" y="170.995" transform="matrix(0.1464 -0.9892 0.9892 0.1464 175.4099 592.6086)" style="fill:#B8B8BF;" width="8" height="47.34"/>
						
							<rect x="415.925" y="194.858" transform="matrix(0.5653 -0.8249 0.8249 0.5653 3.8468 440.55)" style="fill:#B8B8BF;" width="8" height="43.534"/>
						
							<rect x="397.9" y="211.922" transform="matrix(0.8637 -0.504 0.504 0.8637 -62.9722 234.3762)" style="fill:#B8B8BF;" width="8" height="43.416"/>
					</g>
				</g>
			</g>
			<g>
				<path style="fill:#010019;" d="M449.5,180.06c-18.75,8.97-41.59,2.65-53.07-14.68c-12.16-18.36-8.19-42.42,8.49-55.92
					c0.95-0.77,2.33-0.66,3.14,0.25l13.8,15.47c0.79,0.89,0.79,2.27-0.07,3.1c-5.54,5.35-8.01,15.34-4.23,21.86
					c4.43,7.65,14.27,10.27,21.92,5.84c7.65-4.43,10.27-14.27,5.84-21.92c-1.28-2.21-3.14-4.78-5.29-6.44
					c-0.92-0.71-1.2-1.96-0.62-2.97l10.41-17.94c0.62-1.07,1.99-1.45,3.08-0.85c6.49,3.6,11.08,8.53,14.92,15.16
					c12.18,21.03,4.05,48.35-18.31,59.04H449.5z"/>
				<circle style="fill:#F2B705;" cx="429.47" cy="170.19" r="5.94"/>
			</g>
		</g>
		<g id="Layer_9_copy_3-2">
			<path style="fill:#898995;" d="M154.73,265.57c-4.129-0.527-40.963-5.981-62.443-34.985
				c-12.667-17.103-16.994-38.053-12.861-62.269l39.43,6.729c-2.245,13.155-0.459,23.484,5.46,31.576
				c11.531,15.764,35.348,19.251,35.587,19.285l-0.113-0.016L154.73,265.57z"/>
			<g>
				<defs>
					<path id="SVGID_00000147928207148085029300000002047413310124344767_" d="M138.01,261.66c8.62,2.77,15.13,3.71,16.73,3.91
						l5.06-39.68h0.11c-0.24-0.02-24.06-3.51-35.59-19.27c-5.92-8.09-7.7-18.42-5.46-31.57l-39.43-6.73
						c-4.13,24.21,0.19,45.16,12.86,62.26c13.16,17.77,32.08,26.7,45.72,31.07V261.66z"/>
				</defs>
				<clipPath id="SVGID_00000175285752175018633590000012913181921554802846_">
					<use xlink:href="#SVGID_00000147928207148085029300000002047413310124344767_"  style="overflow:visible;"/>
				</clipPath>
				<g style="clip-path:url(#SVGID_00000175285752175018633590000012913181921554802846_);">
					<g>
						
							<rect x="74.356" y="193.79" transform="matrix(0.9872 -0.1597 0.1597 0.9872 -30.3228 18.1887)" style="fill:#B8B8BF;" width="47.338" height="8"/>
						
							<rect x="87.711" y="215.595" transform="matrix(0.8172 -0.5764 0.5764 0.8172 -106.5625 103.2568)" style="fill:#B8B8BF;" width="43.528" height="8"/>
						
							<rect x="106.021" y="232.36" transform="matrix(0.492 -0.8706 0.8706 0.492 -140.8873 231.2866)" style="fill:#B8B8BF;" width="43.418" height="8"/>
					</g>
				</g>
			</g>
			<g>
				<path style="fill:#010019;" d="M79.41,183.44c18.87,8.71,41.62,2.09,52.87-15.39c11.91-18.53,7.62-42.52-9.24-55.8
					c-0.96-0.75-2.34-0.63-3.14,0.29l-13.59,15.66c-0.78,0.9-0.76,2.28,0.11,3.09c5.61,5.28,8.22,15.23,4.53,21.8
					c-4.33,7.71-14.13,10.46-21.84,6.13s-10.46-14.13-6.13-21.84c1.25-2.23,3.07-4.82,5.2-6.51c0.91-0.72,1.17-1.98,0.58-2.97
					l-10.65-17.8c-0.64-1.06-2.01-1.42-3.09-0.81c-6.44,3.68-10.96,8.67-14.71,15.36c-11.9,21.19-3.4,48.4,19.11,58.79H79.41z"/>
				<circle style="fill:#F2B705;" cx="99.31" cy="173.3" r="5.94"/>
			</g>
		</g>
	</g>
	<g id="body_copy_2">
		<path style="fill:#3A3B4F;" d="M246.9,406.2c0,0,7.76,41.91,16.34,42.41c8.58,0.5,16.5-36.96,17.16-42.41S246.9,406.2,246.9,406.2
			z"/>
		<g>
			
				<rect x="205.96" y="20.892" transform="matrix(0.9859 -0.1673 0.1673 0.9859 -7.4171 35.7481)" style="fill:#3A3B4F;" width="5" height="82.006"/>
			<circle style="fill:#F2B705;" cx="200.16" cy="18.58" r="15.16"/>
		</g>
		<g>
			
				<rect x="273.577" y="57.395" transform="matrix(0.1172 -0.9931 0.9931 0.1172 218.223 365.2818)" style="fill:#3A3B4F;" width="81.995" height="4.999"/>
			<circle style="fill:#F2B705;" cx="319.38" cy="16.66" r="15.16"/>
		</g>
		<path style="fill:#F2B705;" d="M264.25,91.31c43.56,0,92.05,0.44,107.89,34.76c15.84,34.32,15.1,163.79,10.12,191.34
			c-6.6,36.52-21.56,89.5-108.25,92.03c-86.65,2.53-120.13-40.49-127.17-93.29s-4.4-146.96,6.16-183.48s67.24-41.36,111.24-41.36
			L264.25,91.31z"/>
		<g>
			<defs>
				<path id="SVGID_00000005961599230015596030000010706197575677770910_" d="M264.25,91.31c43.56,0,92.05,0.44,107.89,34.76
					c15.84,34.32,15.1,163.79,10.12,191.34c-6.6,36.52-21.56,89.5-108.25,92.03c-86.65,2.53-120.13-40.49-127.17-93.29
					s-4.4-146.96,6.16-183.48c10.56-36.52,67.24-41.36,111.24-41.36L264.25,91.31z"/>
			</defs>
			<clipPath id="SVGID_00000129175370591852297850000003369335065158424760_">
				<use xlink:href="#SVGID_00000005961599230015596030000010706197575677770910_"  style="overflow:visible;"/>
			</clipPath>
			<g style="clip-path:url(#SVGID_00000129175370591852297850000003369335065158424760_);">
				<g>
					<circle style="fill:#F29A1D;" cx="162.74" cy="220.02" r="36.34"/>
					<circle style="fill:#F29A1D;" cx="364.86" cy="220.02" r="36.34"/>
				</g>
			</g>
		</g>
		<g>
			<defs>
				<path id="SVGID_00000119796038977376315670000011497544764394536612_" d="M264.25,91.31c43.56,0,92.05,0.44,107.89,34.76
					c15.84,34.32,15.1,163.79,10.12,191.34c-6.6,36.52-21.56,89.5-108.25,92.03c-86.65,2.53-120.13-40.49-127.17-93.29
					s-4.4-146.96,6.16-183.48c10.56-36.52,67.24-41.36,111.24-41.36L264.25,91.31z"/>
			</defs>
			<clipPath id="SVGID_00000133500355123326068200000013313018451823182996_">
				<use xlink:href="#SVGID_00000119796038977376315670000011497544764394536612_"  style="overflow:visible;"/>
			</clipPath>
			<g style="clip-path:url(#SVGID_00000133500355123326068200000013313018451823182996_);">
				<g>
					<path style="fill:#3A3B4F;" d="M398.1,226.18c0,0-58.13,17.6-134.45,17.6s-140.56-17.6-140.56-17.6v64.68
						c0,0,44.71,16.33,141.16,16.33s136.05-18.53,136.05-18.53L398.1,226.18L398.1,226.18z"/>
					<path style="fill:#3A3B4F;" d="M398.64,343.88c0,0-58.36,16.81-134.68,15.78c-76.31-1.04-140.31-19.51-140.31-19.51
						l-0.88,64.68c0,0,44.48,16.93,140.93,18.24c96.44,1.31,136.29-16.68,136.29-16.68L398.64,343.88L398.64,343.88z"/>
				</g>
			</g>
		</g>
		<path style="fill:#F2B705;" d="M278.74,26.92c-0.007,0-0.014,0-0.021,0c-0.576-0.008-1.097-0.345-1.34-0.868l-9.86-21.228
			L259.266,19.9c-0.245,0.447-0.7,0.74-1.209,0.776c-0.504,0.041-1-0.188-1.307-0.596l-6.083-8.105l-8.071,12.393
			c-0.292,0.448-0.794,0.707-1.335,0.68c-0.534-0.028-1.013-0.338-1.257-0.814l-7.027-13.724l-3.09,5.323
			c-0.269,0.462-0.763,0.747-1.297,0.747h-6.39c-0.829,0-1.5-0.671-1.5-1.5s0.671-1.5,1.5-1.5h5.526l4.037-6.953
			c0.276-0.475,0.801-0.762,1.337-0.747c0.549,0.015,1.045,0.328,1.295,0.816l7.1,13.866l7.828-12.021
			c0.267-0.411,0.718-0.665,1.207-0.681c0.484-0.015,0.956,0.207,1.25,0.599l5.973,7.958l8.562-15.638
			c0.271-0.497,0.8-0.795,1.365-0.779c0.565,0.019,1.072,0.354,1.311,0.867l9.798,21.093l7.819-15.69
			c0.261-0.523,0.797-0.855,1.387-0.831c0.584,0.017,1.105,0.373,1.335,0.91l3.231,7.56h5.76c0.828,0,1.5,0.671,1.5,1.5
			c0,0.829-0.672,1.5-1.5,1.5h-6.75c-0.601,0-1.144-0.358-1.379-0.911l-2.346-5.487l-7.763,15.577
			C279.829,26.598,279.309,26.92,278.74,26.92z"/>
	</g>
	<g id="face_copy_2">
		<path style="fill:#FFFFFF;" d="M187,131.03c24.27-9.42,55.87,3.01,60.94,35.39c5.28,33.69-23.32,57.01-57.03,43.95
			c-37.66-14.6-33.4-67.9-3.92-79.34H187z"/>
		<path style="fill:#FFFFFF;" d="M335.49,126.91c30.84,6.36,40.52,39.91,24.43,65.77c-14.79,23.78-61.29,26.35-73.5-4.71
			c-12.21-31.07,13.71-68.35,49.06-61.06L335.49,126.91z"/>
		<g>
			<path style="fill:#3A3B4F;" d="M209.744,218.085c-6.546,0-13.394-1.318-20.278-3.985c-18.312-7.1-29.69-24.132-29.693-44.451
				c-0.003-19.347,10.353-36.365,25.771-42.348l0.725-0.271c13.764-5.093,29.469-3.795,42.166,3.519
				c12.715,7.324,21.045,19.844,23.458,35.252c2.691,17.17-2.909,33.229-14.98,42.957
				C229.243,214.938,219.854,218.085,209.744,218.085z M188.035,134.919c-12.141,4.943-20.266,18.833-20.263,34.729
				c0.002,17.197,9.193,31.025,24.583,36.992c14.778,5.725,29.189,4.226,39.536-4.111c9.964-8.03,14.373-20.965,12.097-35.49
				c-2.031-12.969-8.973-23.466-19.548-29.558c-10.839-6.245-24.295-7.263-35.993-2.722L188.035,134.919z"/>
			<path style="fill:#3A3B4F;" d="M323.202,214.904c-1.627,0-3.262-0.073-4.902-0.223c-16.925-1.543-29.901-10.746-35.603-25.248
				c-6.661-16.949-3.3-36.384,8.772-50.719c11.125-13.212,27.701-19.1,44.41-15.804h0.009l0.409,0.083
				c14.732,3.038,25.955,11.955,31.601,25.108c6.255,14.573,4.542,32.028-4.582,46.692
				C355.619,207.168,339.912,214.904,323.202,214.904z M326.581,129.988c-11.11,0-21.38,4.839-28.992,13.879
				c-10.024,11.904-12.947,28.642-7.446,42.64c4.554,11.583,15.082,18.949,28.884,20.208c15.306,1.394,30.717-5.246,37.497-16.147
				c7.743-12.445,9.247-27.14,4.023-39.311c-4.534-10.564-13.571-17.777-25.474-20.346h-0.001l-0.399-0.083
				C331.944,130.265,329.237,129.988,326.581,129.988z"/>
			<path style="fill:#3A3B4F;" d="M281.379,170.835c-16.338-10.286-30.437-0.595-31.029-0.177l-4.655-6.506
				c0.764-0.549,18.958-13.297,39.945-0.087L281.379,170.835z"/>
		</g>
		<path style="fill:#010019;" d="M227.26,153.87c1.17,7.91-2.13,13.26-7.06,13.99c-4.93,0.73-9.63-3.44-10.8-11.35
			s2.11-13.4,7.04-14.12c4.93-0.73,9.65,3.58,10.82,11.49L227.26,153.87z"/>
		<path style="fill:#010019;" d="M323.42,154.21c-1.55,7.84-6.44,11.78-11.33,10.82c-4.89-0.96-7.92-6.46-6.38-14.31
			c1.55-7.84,6.47-11.92,11.36-10.96c4.89,0.96,7.9,6.6,6.35,14.44V154.21z"/>
		<path style="fill:#3A3B4F;" d="M266.65,218.9c-6.233,0-14.837-9.094-15.798-10.131c-0.75-0.81-0.702-2.075,0.108-2.826
			c0.81-0.751,2.075-0.703,2.826,0.107c3.173,3.421,9.472,8.849,12.864,8.849s9.69-5.428,12.863-8.849
			c0.752-0.812,2.018-0.856,2.826-0.107c0.81,0.751,0.858,2.016,0.107,2.826C281.487,209.806,272.884,218.9,266.65,218.9z"/>
		<path style="fill:#3A3B4F;" d="M305.45,102c-4.31,15.01,27.55,18.53,30.48,9.44C338.24,104.28,308.2,92.43,305.45,102z"/>
		<path style="fill:#3A3B4F;" d="M222.74,102.49c5.35,14.67-26.19,20.41-29.75,11.54C190.19,107.05,219.33,93.13,222.74,102.49z"/>
		<path style="fill:#3A3B4F;" d="M267.04,210.9c0,0,12.38-11.31,19.01-4.49c6.51,6.7-3.92,20.76-19.05,20.74
			c-15.75-0.02-25.33-14.3-19.06-20.74S267.04,210.9,267.04,210.9L267.04,210.9z"/>
		<g>
			<defs>
				<path id="SVGID_00000044898453728819831050000006991088659066123427_" d="M267.04,210.9c0,0,12.38-11.31,19.01-4.49
					c6.51,6.7-3.92,20.76-19.05,20.74c-15.75-0.02-25.33-14.3-19.06-20.74S267.04,210.9,267.04,210.9L267.04,210.9z"/>
			</defs>
			<clipPath id="SVGID_00000117652435890510395650000003246052198778533016_">
				<use xlink:href="#SVGID_00000044898453728819831050000006991088659066123427_"  style="overflow:visible;"/>
			</clipPath>
			<g style="clip-path:url(#SVGID_00000117652435890510395650000003246052198778533016_);">
				<ellipse style="fill:#DA1C5C;" cx="267.02" cy="225.25" rx="13.97" ry="9.49"/>
			</g>
		</g>
	</g>
</g>
</svg>
