<?xml version="1.0" encoding="iso-8859-1"?>
<!-- Generator: Adobe Illustrator 29.8.1, SVG Export Plug-In . SVG Version: 9.03 Build 0)  -->
<svg version="1.1" id="Layer_2_00000047039781609375013520000017520641896494078116_"
	 xmlns="http://www.w3.org/2000/svg" xmlns:xlink="http://www.w3.org/1999/xlink" x="0px" y="0px" viewBox="0 0 518.98 448.62"
	 style="enable-background:new 0 0 518.98 448.62;" xml:space="preserve">
<g id="_02_-_thinking">
	<g id="wings_copy">
		<g id="Layer_5_copy_2">
			<path style="fill:#D6F0FA;" d="M365.02,248.24c0.13-2.34,2.01-4.19,4.35-4.31c24.3-1.19,80.87,1.47,100.74,48.45
				c10.29,24.33-5.59,51.13-29.74,58.54c-25.27,7.75-58.26-5.52-67.97-43.43c-7.8-30.48-7.84-51.02-7.39-59.26L365.02,248.24z"/>
			<g>
				<defs>
					<path id="SVGID_1_" d="M365.02,248.24c0.13-2.34,2.01-4.19,4.35-4.31c24.3-1.19,80.87,1.47,100.74,48.45
						c10.29,24.33-5.59,51.13-29.74,58.54c-25.27,7.75-58.26-5.52-67.97-43.43c-7.8-30.48-7.84-51.02-7.39-59.26L365.02,248.24z"/>
				</defs>
				<clipPath id="SVGID_00000020359685734929721020000016958070885557601703_">
					<use xlink:href="#SVGID_1_"  style="overflow:visible;"/>
				</clipPath>
				<g style="clip-path:url(#SVGID_00000020359685734929721020000016958070885557601703_);">
					<g>
						<path style="fill:#BDE3F8;" d="M430.572,359.521c-1.358,0-2.65-0.796-3.22-2.123c-10.831-25.294-9.943-56.821-9.9-58.151
							c0.053-1.64,1.237-3.021,2.849-3.326c25.687-4.849,52.674-5.325,52.944-5.33c1.904-0.001,3.523,1.512,3.554,3.444
							c0.031,1.933-1.511,3.524-3.443,3.556c-0.254,0.004-24.728,0.439-48.927,4.693c0.05,8.196,0.947,32.716,9.359,52.358
							c0.761,1.777-0.063,3.834-1.84,4.596C431.499,359.43,431.031,359.521,430.572,359.521z"/>
						<path style="fill:#BDE3F8;" d="M420.947,302.86c-0.655,0-1.318-0.184-1.908-0.567c-38.688-25.211-68.19-66.186-69.428-67.918
							c-1.123-1.573-0.759-3.759,0.814-4.882c1.571-1.123,3.759-0.76,4.882,0.813c0.296,0.413,29.997,41.648,67.554,66.121
							c1.619,1.056,2.076,3.224,1.021,4.844C423.212,302.3,422.091,302.86,420.947,302.86z"/>
					</g>
				</g>
			</g>
		</g>
		<g id="Layer_4_copy_2">
			<path style="fill:#D6F0FA;" d="M364.25,205.14c7.94-38.33,29.1-117.41,95.71-100.48c67.4,17.13,39.46,94.84-0.47,122.29
				s-102.07,28.04-128.15,21.69c-14.81-3.61,24.98-5.17,32.92-43.5H364.25z"/>
			<g>
				<defs>
					<path id="SVGID_00000003796207629657406980000007773839261282909090_" d="M364.25,205.14c7.94-38.33,29.1-117.41,95.71-100.48
						c67.4,17.13,39.46,94.84-0.47,122.29s-102.07,28.04-128.15,21.69c-14.81-3.61,24.98-5.17,32.92-43.5H364.25z"/>
				</defs>
				<clipPath id="SVGID_00000118376731568399790060000008308995905239993272_">
					<use xlink:href="#SVGID_00000003796207629657406980000007773839261282909090_"  style="overflow:visible;"/>
				</clipPath>
				<g style="clip-path:url(#SVGID_00000118376731568399790060000008308995905239993272_);">
					<g>
						<path style="fill:#BDE3F8;" d="M458.008,176.664c-17.031,0-29.354-1.592-30.35-1.725c-1.627-0.217-2.884-1.534-3.025-3.168
							c-3.416-39.521-0.035-80.349,0-80.757c0.162-1.926,1.845-3.363,3.782-3.192c1.927,0.163,3.355,1.856,3.192,3.783
							c-0.033,0.392-3.203,38.711-0.235,76.709c10.723,1.097,50.272,4.158,83.061-6.134c1.841-0.579,3.809,0.446,4.387,2.291
							c0.579,1.844-0.446,3.809-2.291,4.388C496.728,175.075,475.019,176.663,458.008,176.664z"/>
						<path style="fill:#BDE3F8;" d="M367.629,247.24c-0.846,0-1.693-0.305-2.365-0.921c-1.424-1.307-1.52-3.521-0.213-4.945
							c0.469-0.511,47.058-51.364,60.121-71.789c1.042-1.629,3.206-2.105,4.834-1.063c1.629,1.042,2.104,3.206,1.062,4.834
							c-13.39,20.936-58.928,70.645-60.859,72.75C369.519,246.858,368.575,247.24,367.629,247.24z"/>
					</g>
				</g>
			</g>
		</g>
		<g id="Layer_5_copy_2-2">
			<path style="fill:#D6F0FA;" d="M156.96,247.86c-0.13-2.34-2.01-4.19-4.35-4.31c-24.3-1.19-80.87,1.47-100.74,48.45
				c-10.29,24.33,5.59,51.13,29.74,58.54c25.27,7.75,58.26-5.52,67.97-43.43c7.8-30.48,7.84-51.02,7.39-59.26L156.96,247.86z"/>
			<g>
				<defs>
					<path id="SVGID_00000151509069345834258200000011745196739543707296_" d="M156.96,248.24c-0.13-2.34-2.01-4.19-4.35-4.31
						c-24.3-1.19-80.87,1.47-100.74,48.45c-10.29,24.33,5.59,51.13,29.74,58.54c25.27,7.75,58.26-5.52,67.97-43.43
						c7.8-30.48,7.84-51.02,7.39-59.26L156.96,248.24z"/>
				</defs>
				<clipPath id="SVGID_00000039128632525132839560000006836439427662183852_">
					<use xlink:href="#SVGID_00000151509069345834258200000011745196739543707296_"  style="overflow:visible;"/>
				</clipPath>
				<g style="clip-path:url(#SVGID_00000039128632525132839560000006836439427662183852_);">
					<g>
						<path style="fill:#BDE3F8;" d="M88.398,359.521c-0.46,0-0.927-0.091-1.376-0.283c-1.777-0.762-2.601-2.818-1.839-4.596
							c8.412-19.643,9.309-44.162,9.358-52.358c-24.199-4.254-48.672-4.689-48.926-4.693c-1.933-0.031-3.475-1.623-3.444-3.556
							c0.031-1.932,1.599-3.451,3.555-3.444c0.27,0.005,27.257,0.481,52.944,5.33c1.611,0.305,2.795,1.687,2.849,3.326
							c0.043,1.33,0.931,32.857-9.901,58.151C91.049,358.725,89.756,359.521,88.398,359.521z"/>
						<path style="fill:#BDE3F8;" d="M98.033,302.86c-1.144,0-2.265-0.56-2.936-1.589c-1.055-1.62-0.598-3.788,1.022-4.844
							c37.557-24.473,67.257-65.708,67.553-66.121c1.124-1.573,3.309-1.937,4.882-0.813c1.572,1.123,1.937,3.309,0.813,4.882
							c-1.237,1.732-30.739,42.707-69.428,67.918C99.351,302.676,98.688,302.86,98.033,302.86z"/>
					</g>
				</g>
			</g>
		</g>
		<g id="Layer_4_copy_2-2">
			<path style="fill:#D6F0FA;" d="M154.73,205.14c-7.94-38.33-29.1-117.41-95.71-100.48c-67.4,17.13-39.46,94.84,0.47,122.29
				s102.07,28.04,128.15,21.69c14.81-3.61-24.98-5.17-32.92-43.5H154.73z"/>
			<g>
				<defs>
					<path id="SVGID_00000107567479986672164270000001154559380606430122_" d="M154.73,205.14c-7.94-38.33-29.1-117.41-95.71-100.48
						c-67.4,17.13-39.46,94.84,0.47,122.29s102.07,28.04,128.15,21.69c14.81-3.61-24.98-5.17-32.92-43.5H154.73z"/>
				</defs>
				<clipPath id="SVGID_00000092440629674181626710000008573423131343917996_">
					<use xlink:href="#SVGID_00000107567479986672164270000001154559380606430122_"  style="overflow:visible;"/>
				</clipPath>
				<g style="clip-path:url(#SVGID_00000092440629674181626710000008573423131343917996_);">
					<g>
						<path style="fill:#BDE3F8;" d="M60.972,176.664c-17.012,0-38.717-1.588-58.52-7.805c-1.844-0.579-2.87-2.543-2.291-4.388
							c0.579-1.844,2.54-2.87,4.388-2.291c32.786,10.292,72.339,7.231,83.059,6.134c2.968-37.998-0.202-76.317-0.235-76.709
							c-0.163-1.926,1.266-3.62,3.192-3.783c1.925-0.171,3.62,1.266,3.783,3.192c0.035,0.408,3.416,41.235,0,80.757
							c-0.141,1.634-1.398,2.951-3.024,3.168C90.326,175.072,78,176.663,60.972,176.664z M90.86,171.47h0.01H90.86z"/>
						<path style="fill:#BDE3F8;" d="M151.351,247.24c-0.947,0-1.89-0.382-2.58-1.134c-1.932-2.105-47.469-51.814-60.859-72.75
							c-1.042-1.628-0.566-3.792,1.062-4.834c1.628-1.042,3.793-0.566,4.834,1.062c13.063,20.425,59.651,71.278,60.121,71.789
							c1.307,1.425,1.211,3.639-0.213,4.945C153.044,246.935,152.196,247.24,151.351,247.24z"/>
					</g>
				</g>
			</g>
		</g>
	</g>
	<g id="arms_copy">
		<g id="Layer_9_copy_2">
			<path style="fill:#898995;" d="M373.191,281.867c-9.053,0-15.536-1.089-17.121-1.383l7.299-39.328l-0.112-0.021
				c0.238,0.041,23.989,3.995,39.784-7.494c8.105-5.896,12.959-15.182,14.838-28.389l39.602,5.636
				c-3.46,24.313-13.978,42.938-31.259,55.353C408.262,279.142,387.512,281.867,373.191,281.867z"/>
			<g>
				<defs>
					<path id="SVGID_00000043416807974875121980000002345717505635900079_" d="M373.19,281.87c-9.05,0-15.54-1.09-17.12-1.38
						l7.3-39.33l-0.11-0.02c0.24,0.04,23.98,4,39.78-7.49c8.11-5.9,12.96-15.18,14.84-28.39l39.6,5.64
						c-3.46,24.32-13.98,42.94-31.26,55.36c-17.96,12.9-38.7,15.62-53.02,15.62L373.19,281.87z"/>
				</defs>
				<clipPath id="SVGID_00000145032626220461559550000014972116991362729903_">
					<use xlink:href="#SVGID_00000043416807974875121980000002345717505635900079_"  style="overflow:visible;"/>
				</clipPath>
				<g style="clip-path:url(#SVGID_00000145032626220461559550000014972116991362729903_);">
					<g>
						
							<rect x="426.775" y="209.598" transform="matrix(0.4537 -0.8912 0.8912 0.4537 27.454 511.3247)" style="fill:#B8B8BF;" width="8" height="47.344"/>
						
							<rect x="409.204" y="228.764" transform="matrix(0.7985 -0.6019 0.6019 0.7985 -67.5634 299.1966)" style="fill:#B8B8BF;" width="8.001" height="43.543"/>
						
							<rect x="386.7" y="239.209" transform="matrix(0.9792 -0.2027 0.2027 0.9792 -44.7706 84.5935)" style="fill:#B8B8BF;" width="8" height="43.422"/>
					</g>
				</g>
			</g>
			<g>
				<path style="fill:#010019;" d="M452.88,225.29c-20.63,2.53-40.27-10.72-45.64-30.8c-5.69-21.28,5.73-42.82,25.84-50.31
					c1.14-0.43,2.42,0.11,2.9,1.23l8.16,19.06c0.47,1.1,0.03,2.4-1.05,2.91c-6.95,3.31-12.48,11.99-10.97,19.38
					c1.77,8.67,10.26,14.28,18.92,12.51c8.67-1.77,14.28-10.26,12.51-18.92c-0.51-2.51-1.45-5.53-2.96-7.78
					c-0.64-0.96-0.51-2.24,0.36-3.01l15.58-13.7c0.93-0.82,2.35-0.74,3.19,0.17c5.01,5.47,7.79,11.61,9.32,19.12
					c4.86,23.82-11.55,47.12-36.15,50.14H452.88z"/>
				<circle style="fill:#F2B705;" cx="437.03" cy="209.55" r="5.94"/>
			</g>
		</g>
	</g>
	<g id="arms-under">
		<path style="fill:#898995;" d="M106.132,310.949c-6.947-14.905-6.982-30.499-0.1-43.908c5.738-11.18,18.91-25.7,49.074-31.385
			l7.408,39.309c-16.013,3.018-20.042,8.678-20.896,10.341c-1.433,2.791-0.373,6.297,0.769,8.747L106.132,310.949z"/>
		<g>
			<defs>
				<path id="SVGID_00000029726605302120463730000004362276002524014241_" d="M149.42,336.04c-18.73,0-36.29-10.08-43.28-25.09
					c-9.25-19.86-5.9-41.18,8.7-55.98c4.76-5.58,18.57-18.02,47.51-18.61l0.81,39.99c-11.58,0.23-16.58,3.56-17.74,4.48l-0.43,0.62
					l-1.45,1.4c-1.39,1.34-4.26,4.09-1.35,10.73c1.02,1.01,4.65,3.08,9.35,2.28c8.75-1.49,17.24-12.04,23.3-28.97l37.66,13.49
					c-16.74,46.72-45.2,54.89-60.67,55.6c-0.8,0.04-1.6,0.06-2.39,0.06H149.42z"/>
			</defs>
			<clipPath id="SVGID_00000111158877739056668090000008213009772448948652_">
				<use xlink:href="#SVGID_00000029726605302120463730000004362276002524014241_"  style="overflow:visible;"/>
			</clipPath>
			<g style="clip-path:url(#SVGID_00000111158877739056668090000008213009772448948652_);">
				<g>
					
						<rect x="119.945" y="252.999" transform="matrix(0.3355 -0.942 0.942 0.3355 -177.8485 300.3162)" style="fill:#B8B8BF;" width="8.001" height="46.441"/>
					
						<rect x="136.88" y="236.926" transform="matrix(0.8798 -0.4753 0.4753 0.8798 -106.023 98.0518)" style="fill:#B8B8BF;" width="8" height="43.508"/>
				</g>
			</g>
		</g>
	</g>
	<g id="body_copy">
		<path style="fill:#3A3B4F;" d="M246.9,406.2c0,0,7.76,41.91,16.34,42.41c8.58,0.5,16.5-36.96,17.16-42.41S246.9,406.2,246.9,406.2
			z"/>
		<g>
			
				<rect x="205.96" y="20.892" transform="matrix(0.9859 -0.1673 0.1673 0.9859 -7.4171 35.7481)" style="fill:#3A3B4F;" width="5" height="82.006"/>
			<circle style="fill:#F2B705;" cx="200.16" cy="18.58" r="15.16"/>
		</g>
		<g>
			
				<rect x="273.577" y="57.395" transform="matrix(0.1172 -0.9931 0.9931 0.1172 218.223 365.2818)" style="fill:#3A3B4F;" width="81.995" height="4.999"/>
			<circle style="fill:#F2B705;" cx="319.38" cy="16.66" r="15.16"/>
		</g>
		<path style="fill:#F2B705;" d="M264.25,91.31c43.56,0,92.05,0.44,107.89,34.76c15.84,34.32,15.1,163.79,10.12,191.34
			c-6.6,36.52-21.56,89.5-108.25,92.03c-86.65,2.53-120.13-40.49-127.17-93.29c-6.69-50.16-4.4-146.96,6.16-183.48
			c10.4-35.97,67.24-41.36,111.24-41.36L264.25,91.31z"/>
		<g>
			<defs>
				<path id="SVGID_00000141417768025197815720000000271017138394281873_" d="M264.25,91.31c43.56,0,92.05,0.44,107.89,34.76
					c15.84,34.32,15.1,163.79,10.12,191.34c-6.6,36.52-21.56,89.5-108.25,92.03c-86.65,2.53-120.13-40.49-127.17-93.29
					c-6.69-50.16-4.4-146.96,6.16-183.48c10.4-35.97,67.24-41.36,111.24-41.36L264.25,91.31z"/>
			</defs>
			<clipPath id="SVGID_00000182490860587829261400000016634188204581742212_">
				<use xlink:href="#SVGID_00000141417768025197815720000000271017138394281873_"  style="overflow:visible;"/>
			</clipPath>
			<g style="clip-path:url(#SVGID_00000182490860587829261400000016634188204581742212_);">
				<g>
					<circle style="fill:#F29A1D;" cx="162.74" cy="220.02" r="36.34"/>
					<circle style="fill:#F29A1D;" cx="364.86" cy="220.02" r="36.34"/>
				</g>
			</g>
		</g>
		<g>
			<defs>
				<path id="SVGID_00000037658512020533769860000014711053270506418101_" d="M264.25,91.31c43.56,0,92.05,0.44,107.89,34.76
					c15.84,34.32,15.1,163.79,10.12,191.34c-6.6,36.52-21.56,89.5-108.25,92.03c-86.65,2.53-120.13-40.49-127.17-93.29
					c-6.69-50.16-4.4-146.96,6.16-183.48c10.4-35.97,67.24-41.36,111.24-41.36L264.25,91.31z"/>
			</defs>
			<clipPath id="SVGID_00000110433137250141082730000001039841612361300405_">
				<use xlink:href="#SVGID_00000037658512020533769860000014711053270506418101_"  style="overflow:visible;"/>
			</clipPath>
			<g style="clip-path:url(#SVGID_00000110433137250141082730000001039841612361300405_);">
				<g>
					<path style="fill:#3A3B4F;" d="M398.1,226.18c0,0-58.13,17.6-134.45,17.6s-140.56-17.6-140.56-17.6v64.68
						c0,0,44.71,16.33,141.16,16.33s136.05-18.53,136.05-18.53L398.1,226.18L398.1,226.18z"/>
					<path style="fill:#3A3B4F;" d="M398.64,343.88c0,0-58.36,16.81-134.68,15.78c-76.31-1.04-140.31-19.51-140.31-19.51
						l-0.88,64.68c0,0,44.48,16.93,140.93,18.24c96.44,1.31,136.29-16.68,136.29-16.68L398.64,343.88L398.64,343.88z"/>
				</g>
			</g>
		</g>
	</g>
	<g id="face_copy">
		<path style="fill:#FFFFFF;" d="M184.38,141.78c23.65-10.88,55.95-0.4,62.99,31.61c7.33,33.31-19.8,58.33-54.24,47.34
			C154.65,208.45,155.65,155,184.38,141.78z"/>
		<path style="fill:#FFFFFF;" d="M332.34,128.6c31.17,4.46,42.88,37.36,28.4,64.16c-13.31,24.64-59.56,30.04-73.65-0.22
			s9.51-69.05,45.24-63.94H332.34z"/>
		<g>
			<path style="fill:#3A3B4F;" d="M209.376,227.378c-5.629,0-11.503-0.937-17.462-2.838c-18.711-5.971-31.105-22.277-32.348-42.556
				c-1.183-19.308,8.117-36.925,23.142-43.838l0,0c13.576-6.246,29.65-6.011,42.998,0.628c13.139,6.535,22.221,18.524,25.571,33.756
				c3.736,16.977-0.874,33.349-12.332,43.795C230.947,223.618,220.654,227.378,209.376,227.378z M186.052,145.414
				c-12.048,5.543-19.482,20.044-18.5,36.082c1.051,17.163,11.067,30.405,26.794,35.424c15.098,4.816,29.389,2.447,39.209-6.506
				c9.457-8.622,13.068-21.803,9.908-36.164c-2.82-12.822-10.392-22.877-21.32-28.313
				C210.941,140.366,197.45,140.17,186.052,145.414L186.052,145.414z"/>
			<path style="fill:#3A3B4F;" d="M322.154,217.284c-0.533,0-1.066-0.008-1.602-0.024c-16.991-0.506-30.51-8.9-37.089-23.032
				c-7.684-16.501-5.52-36.099,5.647-51.143c10.323-13.907,26.56-20.805,43.497-18.485l0.298,0.041
				c14.888,2.13,26.633,10.342,33.071,23.124c7.137,14.166,6.494,31.697-1.718,46.897
				C356.879,208.324,340.1,217.284,322.154,217.284z M326.007,132.145c-12.041,0-22.927,5.543-30.472,15.708
				c-9.272,12.493-11.165,29.371-4.819,42.998c5.257,11.289,16.218,18,30.074,18.412c15.36,0.462,30.33-7.111,36.431-18.405
				c6.97-12.9,7.572-27.665,1.612-39.496c-5.188-10.299-14.693-16.954-26.784-18.763l-0.285-0.04
				C329.822,132.282,327.899,132.145,326.007,132.145z"/>
			<path style="fill:#3A3B4F;" d="M251.059,180.538l-5.072-6.186c0.727-0.598,18.04-14.517,39.857-2.71l-3.807,7.036
				C265.05,169.487,251.622,180.083,251.059,180.538z"/>
		</g>
		<path style="fill:#010019;" d="M194.52,171.9c-2.87,7.46-8.37,10.5-13.02,8.71s-6.69-7.73-3.82-15.19s8.42-10.63,13.07-8.84
			C195.4,158.37,197.39,164.44,194.52,171.9z"/>
		<path style="fill:#010019;" d="M314.44,164.57c-2.87,7.46-8.37,10.5-13.02,8.71s-6.69-7.73-3.82-15.19s8.42-10.63,13.07-8.84
			S317.31,157.11,314.44,164.57z"/>
		<path style="fill:#3A3B4F;" d="M268.84,224.639c-6.216,0-14.982-8.208-15.982-9.164c-0.798-0.763-0.826-2.028-0.063-2.827
			c0.764-0.798,2.029-0.827,2.828-0.064c3.375,3.223,10.027,8.261,13.386,8.05c3.393-0.208,9.348-6.012,12.305-9.621
			c0.699-0.854,1.961-0.979,2.814-0.28c0.854,0.7,0.98,1.959,0.281,2.814c-0.895,1.094-8.924,10.697-15.155,11.08
			C269.116,224.635,268.979,224.639,268.84,224.639z"/>
		<path style="fill:#3A3B4F;" d="M296.32,105.02c-2.9,15.35,29.16,15.88,31.23,6.56C329.18,104.24,298.17,95.23,296.32,105.02z"/>
		<path style="fill:#3A3B4F;" d="M234.09,123.68c-5.25,14.71-33.19-1.01-30.27-10.1C206.12,106.42,237.43,114.3,234.09,123.68z"/>
	</g>
	<path style="fill:#F2B705;" d="M278.25,26.92c-0.007,0-0.014,0-0.021,0c-0.576-0.008-1.097-0.345-1.34-0.868l-9.86-21.228
		L258.776,19.9c-0.245,0.447-0.7,0.74-1.209,0.776c-0.499,0.041-1-0.188-1.307-0.596l-6.083-8.105l-8.07,12.393
		c-0.292,0.448-0.806,0.707-1.334,0.68c-0.534-0.028-1.013-0.338-1.257-0.814l-7.035-13.723l-3.082,5.321
		c-0.268,0.463-0.763,0.748-1.298,0.748h-6.39c-0.829,0-1.5-0.671-1.5-1.5s0.671-1.5,1.5-1.5h5.525l4.027-6.952
		c0.275-0.475,0.76-0.765,1.336-0.748c0.549,0.014,1.046,0.327,1.296,0.815l7.11,13.868l7.828-12.022
		c0.267-0.411,0.718-0.665,1.207-0.681c0.486-0.015,0.956,0.207,1.25,0.599l5.973,7.958l8.562-15.638
		c0.271-0.497,0.809-0.795,1.365-0.779c0.565,0.019,1.072,0.354,1.311,0.867l9.798,21.093l7.819-15.69
		c0.261-0.523,0.802-0.855,1.387-0.831c0.584,0.017,1.105,0.373,1.335,0.91l3.231,7.56h5.76c0.828,0,1.5,0.671,1.5,1.5
		c0,0.829-0.672,1.5-1.5,1.5h-6.75c-0.601,0-1.144-0.358-1.379-0.911l-2.346-5.487l-7.763,15.577
		C279.339,26.598,278.818,26.92,278.25,26.92z"/>
	<g id="arm-top">
		<g id="Layer_9_copy_2-2">
			<path style="fill:#898995;" d="M149.424,336.038c-18.727,0-36.294-10.086-43.284-25.095c-9.464-20.3-5.751-42.122,9.691-56.943
				l27.697,28.859c-1.391,1.335-4.251,4.08-1.345,10.718c1.016,1.005,4.644,3.081,9.347,2.28
				c8.748-1.487,17.241-12.044,23.301-28.963l37.657,13.49c-16.736,46.718-45.199,54.887-60.677,55.599
				C151.015,336.02,150.218,336.038,149.424,336.038z M142.03,293.411L142.03,293.411L142.03,293.411z"/>
			<g>
				<defs>
					<path id="SVGID_00000061439338773466776500000016822418205975137471_" d="M149.42,336.04c-18.73,0-36.29-10.08-43.28-25.09
						c-9.25-19.86-5.9-41.18,8.7-55.98c4.76-5.58,28.69,27.88,28.69,27.88c-1.39,1.34-4.26,4.09-1.35,10.73
						c1.02,1.01,4.65,3.08,9.35,2.28c8.75-1.49,17.24-12.04,23.3-28.97l37.66,13.49c-16.74,46.72-45.2,54.89-60.67,55.6
						c-0.8,0.04-1.6,0.06-2.39,0.06H149.42z"/>
				</defs>
				<clipPath id="SVGID_00000006672225942190914580000011640448129787880838_">
					<use xlink:href="#SVGID_00000061439338773466776500000016822418205975137471_"  style="overflow:visible;"/>
				</clipPath>
				<g style="clip-path:url(#SVGID_00000006672225942190914580000011640448129787880838_);">
					<g>
						
							<rect x="177.53" y="274.521" transform="matrix(0.6516 -0.7586 0.7586 0.6516 -164.067 242.1106)" style="fill:#B8B8BF;" width="8" height="50.279"/>
						
							<rect x="154.035" y="291.47" transform="matrix(0.9674 -0.2531 0.2531 0.9674 -74.5328 50.2506)" style="fill:#B8B8BF;" width="8" height="46.66"/>
						
							<rect x="103.101" y="304.405" transform="matrix(0.7024 -0.7118 0.7118 0.7024 -181.4886 182.7438)" style="fill:#B8B8BF;" width="49.378" height="8"/>
						
							<rect x="120.245" y="253.11" transform="matrix(0.3355 -0.942 0.942 0.3355 -177.7529 300.6724)" style="fill:#B8B8BF;" width="8.001" height="46.441"/>
					</g>
				</g>
			</g>
			<g>
				<path style="fill:#010019;" d="M206.02,293.62c-20.72-1.64-37.32-18.56-38.56-39.3c-1.32-21.99,14.17-40.81,35.38-44.13
					c1.2-0.19,2.35,0.6,2.59,1.79l4.18,20.3c0.24,1.17-0.45,2.36-1.61,2.64c-7.48,1.86-14.62,9.25-14.62,16.79
					c0,8.85,7.2,16.04,16.04,16.04c8.84,0,16.04-7.2,16.04-16.04c0-2.56-0.32-5.71-1.35-8.22c-0.44-1.07-0.05-2.3,0.95-2.88
					l18-10.31c1.07-0.62,2.45-0.26,3.09,0.81c3.81,6.36,5.31,12.93,5.31,20.59c0,24.31-20.73,43.86-45.44,41.91V293.62z"/>
				<circle style="fill:#F2B705;" cx="193.63" cy="275.03" r="5.94"/>
			</g>
		</g>
	</g>
</g>
</svg>
